<?xml version="1.0" standalone="no"?>
<!DOCTYPE svg PUBLIC "-//W3C//DTD SVG 20010904//EN"
 "http://www.w3.org/TR/2001/REC-SVG-20010904/DTD/svg10.dtd">
<svg version="1.0" xmlns="http://www.w3.org/2000/svg"
 width="512.000000pt" height="512.000000pt" viewBox="0 0 512.000000 512.000000"
 preserveAspectRatio="xMidYMid meet">
<metadata>
Created by potrace 1.16, written by Peter Selinger 2001-2019
</metadata>
<g transform="translate(0.000000,512.000000) scale(0.100000,-0.100000)"
fill="#FF5E41" stroke="none">
<path d="M1262 4299 c-48 -24 -97 -79 -111 -124 -5 -16 -12 -55 -16 -86 l-6
-57 -72 -4 c-133 -6 -251 -86 -307 -206 -33 -70 -37 -169 -50 -1152 -6 -481
-13 -902 -15 -935 -3 -33 -9 -104 -15 -158 -5 -60 -5 -133 1 -185 5 -48 8
-153 8 -234 -1 -165 10 -215 64 -291 58 -81 134 -130 228 -147 50 -9 644 -20
1887 -37 465 -6 522 -5 522 9 0 27 40 68 66 68 14 0 59 -16 102 -37 42 -20 89
-36 103 -36 75 0 201 102 247 201 25 55 26 65 33 312 10 348 31 1789 33 2195
l1 330 -31 60 c-65 123 -169 194 -299 204 l-70 6 -2 60 c-3 105 -42 168 -129
211 -48 23 -63 26 -121 21 -119 -9 -198 -92 -210 -221 l-6 -69 -156 7 c-86 3
-417 9 -736 12 -319 4 -587 10 -596 15 -11 5 -14 17 -11 37 6 44 -23 132 -57
173 -63 76 -189 102 -279 58z m157 -165 c19 -24 21 -40 21 -153 0 -138 -11
-195 -40 -211 -30 -16 -68 -12 -90 10 -18 18 -20 33 -20 171 0 184 9 209 77
209 22 0 38 -8 52 -26z m1970 -30 c19 -24 21 -40 21 -148 -1 -135 -11 -194
-36 -213 -26 -19 -71 -16 -94 7 -18 18 -20 33 -20 178 0 145 2 160 20 180 30
32 82 30 109 -4z m-2258 -284 c8 -71 32 -122 77 -161 48 -42 91 -59 152 -59
61 0 104 17 154 60 48 43 68 82 75 150 l6 55 375 -4 c206 -2 544 -7 750 -10
l375 -6 6 -61 c12 -127 107 -214 231 -214 124 1 228 104 228 227 0 42 14 48
82 34 64 -14 120 -56 148 -112 17 -32 20 -59 20 -170 l0 -131 -227 6 c-126 4
-527 11 -893 16 -366 6 -910 15 -1210 20 -300 6 -560 10 -579 10 l-33 0 4 128
c3 112 7 132 28 171 39 69 116 113 190 108 35 -2 35 -2 41 -57z m324 -525
c286 -3 619 -7 740 -10 121 -3 398 -7 615 -10 217 -3 531 -8 697 -11 l303 -7
-5 -146 c-3 -80 -7 -328 -10 -551 -14 -1100 -17 -1316 -24 -1452 -7 -142 -8
-149 -36 -190 -19 -25 -49 -51 -79 -66 l-50 -25 -670 12 c-369 6 -749 11 -843
11 -95 0 -173 1 -173 3 0 1 43 46 95 99 81 82 102 109 136 183 49 107 65 168
79 300 12 104 11 115 -24 271 -32 143 -141 301 -281 406 -149 112 -254 151
-441 165 -205 15 -422 -69 -580 -224 l-56 -55 6 443 c3 244 9 540 12 657 l6
212 32 -4 c17 -3 265 -8 551 -11z m161 -1199 c201 -53 387 -242 440 -447 22
-83 21 -233 -1 -319 -23 -89 -74 -183 -141 -258 -192 -215 -480 -270 -749
-142 -83 40 -215 165 -262 250 -72 129 -99 298 -69 438 53 249 258 446 512
492 62 11 203 4 270 -14z"/>
<path d="M1992 2220 c-32 -30 -33 -88 -1 -129 50 -63 262 -273 285 -281 41
-16 92 14 125 75 43 77 45 97 14 133 -29 34 -68 42 -108 21 -19 -11 -30 -2
-123 95 -90 95 -105 106 -136 106 -21 0 -43 -8 -56 -20z"/>
<path d="M1423 1896 c-26 -23 -28 -30 -39 -162 -7 -77 -13 -178 -13 -226 -1
-75 2 -90 19 -106 22 -20 100 -32 217 -32 55 0 64 3 82 26 26 34 27 64 1 97
-17 22 -32 27 -92 33 l-71 7 7 91 c3 50 9 123 13 163 6 70 5 73 -25 102 -37
37 -62 39 -99 7z"/>
</g>
</svg>
