<?xml version="1.0" standalone="no"?>
<!DOCTYPE svg PUBLIC "-//W3C//DTD SVG 20010904//EN"
 "http://www.w3.org/TR/2001/REC-SVG-20010904/DTD/svg10.dtd">
<svg version="1.0" xmlns="http://www.w3.org/2000/svg"
 width="512.000000pt" height="512.000000pt" viewBox="0 0 512.000000 512.000000"
 preserveAspectRatio="xMidYMid meet">
<metadata>
Created by potrace 1.16, written by Peter Selinger 2001-2019
</metadata>
<g transform="translate(0.000000,512.000000) scale(0.100000,-0.100000)"
fill="#FF5E41" stroke="none">
<path d="M1289 4576 c-87 -31 -137 -97 -152 -201 l-11 -72 -82 -11 c-97 -13
-149 -37 -215 -99 -79 -74 -100 -129 -110 -286 -7 -131 -34 -2009 -34 -2432
l0 -220 29 -63 c37 -80 123 -162 201 -191 69 -26 128 -29 795 -36 278 -3 817
-10 1198 -16 765 -11 767 -11 855 50 113 78 157 157 169 305 4 56 15 675 23
1376 14 1140 14 1280 0 1324 -20 66 -46 105 -105 160 -64 60 -127 88 -211 94
l-67 5 -10 79 c-17 133 -87 206 -207 216 -65 5 -136 -17 -178 -56 -40 -36 -67
-99 -74 -167 l-6 -67 -221 6 c-122 3 -458 9 -748 12 l-527 7 -7 66 c-8 80 -30
126 -83 174 -61 55 -144 71 -222 43z m127 -167 c17 -19 19 -38 19 -180 0 -150
-1 -160 -22 -180 -30 -30 -80 -30 -105 0 -16 20 -18 42 -18 176 0 139 2 155
21 179 26 33 77 36 105 5z m1973 -35 c19 -24 21 -40 20 -138 0 -139 -11 -205
-35 -223 -26 -19 -71 -16 -94 7 -18 18 -20 33 -20 178 0 145 2 160 20 180 30
32 82 30 109 -4z m-2259 -271 c0 -61 19 -112 57 -154 57 -63 103 -82 189 -77
62 3 79 8 116 35 55 39 98 118 98 180 l0 45 716 -7 c393 -4 730 -9 747 -11 18
-1 35 -3 40 -3 4 -1 7 -18 7 -38 0 -60 17 -106 57 -153 47 -54 102 -80 173
-80 124 0 230 101 230 219 0 22 4 43 10 46 21 13 125 -15 160 -44 68 -55 80
-89 80 -239 l0 -132 -237 5 c-131 3 -578 10 -993 15 -415 5 -970 13 -1232 16
l-478 7 0 98 c0 54 5 120 10 147 21 94 105 161 203 162 l47 0 0 -37z m1400
-553 c448 -5 920 -13 1049 -16 l233 -6 -6 -212 c-3 -116 -11 -616 -17 -1111
-6 -561 -14 -918 -21 -949 -12 -56 -54 -108 -109 -137 -34 -17 -60 -19 -249
-19 -115 0 -210 2 -210 4 0 3 25 29 56 58 155 146 232 308 250 524 31 377
-241 743 -608 818 -112 23 -289 21 -383 -4 -122 -33 -253 -112 -370 -225 -72
-70 -147 -207 -183 -338 -25 -91 -24 -319 2 -407 39 -133 99 -232 210 -349
l61 -63 -590 6 c-341 4 -613 11 -643 17 -67 13 -124 61 -148 125 -16 41 -16
104 -5 922 6 482 14 991 17 1131 l6 254 422 -6 c231 -4 788 -11 1236 -17z
m350 -1201 c110 -24 243 -111 332 -217 115 -137 163 -339 124 -525 -46 -223
-215 -405 -441 -473 -81 -25 -257 -25 -340 0 -215 64 -386 239 -440 451 -19
76 -19 234 0 310 62 241 278 433 525 465 62 8 173 3 240 -11z"/>
<path d="M1145 1715 c-32 -31 -33 -78 -1 -119 13 -17 60 -68 105 -113 70 -71
86 -83 115 -83 47 0 81 30 84 74 2 32 -5 44 -65 109 -37 40 -85 92 -105 115
-30 35 -43 42 -73 42 -25 0 -43 -8 -60 -25z"/>
<path d="M2581 1703 c-105 -75 -121 -100 -97 -150 26 -55 84 -57 151 -3 21 16
43 30 49 30 6 -1 38 -39 71 -87 116 -166 132 -183 170 -183 84 0 100 78 34
169 -22 31 -74 103 -115 161 -41 58 -82 111 -91 118 -36 27 -77 14 -172 -55z"/>
</g>
</svg>
