<?xml version="1.0" standalone="no"?>
<!DOCTYPE svg PUBLIC "-//W3C//DTD SVG 20010904//EN"
 "http://www.w3.org/TR/2001/REC-SVG-20010904/DTD/svg10.dtd">
<svg version="1.0" xmlns="http://www.w3.org/2000/svg"
 width="512.000000pt" height="512.000000pt" viewBox="0 0 512.000000 512.000000"
 preserveAspectRatio="xMidYMid meet">
<metadata>
Created by potrace 1.16, written by Peter Selinger 2001-2019
</metadata>
<g transform="translate(0.000000,512.000000) scale(0.100000,-0.100000)"
fill="#FF5E41" stroke="none">
<path d="M1286 4646 c-94 -35 -148 -106 -154 -200 l-4 -64 -77 -4 c-134 -8
-260 -88 -316 -202 -34 -71 -40 -140 -76 -931 -16 -368 -34 -760 -39 -870 -48
-1007 -49 -1031 -10 -1105 51 -101 127 -166 225 -195 52 -16 348 -33 1405 -80
184 -8 425 -20 535 -25 702 -33 705 -33 763 -20 79 17 122 41 185 102 39 38
60 70 76 113 25 66 28 109 56 710 14 316 42 910 80 1714 17 356 15 390 -27
475 -27 52 -106 128 -163 156 -25 12 -77 27 -117 34 l-71 12 -1 64 c-4 139
-100 233 -236 233 -60 0 -107 -19 -153 -62 -40 -36 -58 -74 -67 -143 -5 -33
-11 -63 -15 -66 -5 -5 -259 5 -1085 43 -168 8 -329 15 -357 15 l-53 0 0 53 c0
100 -41 179 -115 222 -52 31 -137 40 -189 21z m124 -171 c23 -24 23 -27 17
-176 -7 -160 -15 -191 -57 -204 -29 -9 -78 13 -86 39 -10 28 -5 254 6 302 15
66 76 86 120 39z m1973 -98 c17 -19 18 -34 12 -152 -8 -170 -12 -191 -38 -210
-31 -22 -64 -18 -93 10 -25 25 -25 26 -19 158 3 72 8 147 11 164 9 60 87 79
127 30z m-2262 -227 c7 -76 25 -115 73 -158 31 -27 116 -62 151 -62 6 0 35 7
63 15 93 28 154 102 167 201 l7 50 66 -3 c64 -3 693 -32 1177 -54 127 -5 236
-11 243 -12 9 -1 15 -21 17 -58 4 -71 23 -115 71 -162 92 -91 244 -83 331 17
31 35 46 71 58 139 6 36 7 37 46 37 72 0 160 -64 189 -138 14 -36 8 -259 -7
-273 -5 -3 -80 -3 -168 2 -88 4 -315 15 -505 23 -190 9 -388 18 -440 21 -52 2
-198 9 -325 15 -126 5 -268 12 -315 15 -47 3 -238 12 -425 20 -187 9 -423 20
-525 25 -102 5 -193 10 -204 10 -17 0 -18 8 -14 123 3 98 8 130 25 162 39 74
108 116 188 112 l50 -2 6 -65z m-66 -500 c219 -11 445 -22 1055 -50 239 -11
575 -27 745 -35 171 -8 423 -19 560 -25 138 -6 274 -13 304 -16 l54 -6 -7
-161 c-3 -89 -11 -247 -16 -352 -5 -104 -14 -293 -20 -420 -5 -126 -12 -273
-15 -325 -3 -52 -10 -196 -15 -320 -20 -456 -30 -646 -36 -680 -8 -55 -53
-112 -108 -139 l-49 -25 -286 13 c-619 26 -872 39 -875 42 -2 2 24 29 58 59
130 115 216 256 250 407 23 103 21 279 -4 374 -59 227 -185 385 -405 509 -96
54 -165 71 -306 77 -272 12 -422 -47 -611 -239 -111 -113 -137 -152 -173 -263
-60 -183 -70 -315 -34 -463 29 -122 77 -213 170 -320 43 -50 79 -93 79 -94 0
-4 -110 0 -322 11 -187 10 -231 24 -275 90 -41 61 -43 87 -28 400 22 450 33
676 60 1281 29 637 32 680 48 680 7 0 98 -5 202 -10z m990 -1246 c209 -51 381
-215 447 -427 18 -57 22 -94 22 -182 -2 -190 -61 -324 -202 -457 -237 -223
-607 -223 -843 -1 -126 119 -181 225 -200 386 -15 124 4 237 60 354 68 142
220 274 373 322 94 31 229 32 343 5z"/>
<path d="M1665 3528 c-27 -16 -39 -31 -172 -230 -63 -95 -116 -175 -118 -177
-2 -2 -24 13 -48 33 -54 44 -96 48 -132 11 -42 -41 -29 -97 35 -151 14 -12 39
-34 55 -48 54 -48 93 -68 117 -61 32 10 67 44 89 87 11 21 39 66 64 100 72
100 179 259 209 311 31 52 30 83 -4 117 -22 22 -64 26 -95 8z"/>
<path d="M1865 2031 c-34 -14 -44 -34 -53 -99 -5 -34 -11 -65 -15 -68 -3 -3
-76 2 -162 12 -155 17 -156 17 -183 -3 -34 -26 -41 -79 -14 -113 19 -23 23
-24 403 -65 94 -10 111 19 125 200 6 79 4 93 -12 112 -22 26 -60 36 -89 24z"/>
</g>
</svg>
