<?xml version="1.0" standalone="no"?>
<!DOCTYPE svg PUBLIC "-//W3C//DTD SVG 20010904//EN"
 "http://www.w3.org/TR/2001/REC-SVG-20010904/DTD/svg10.dtd">
<svg version="1.0" xmlns="http://www.w3.org/2000/svg"
 width="512.000000pt" height="512.000000pt" viewBox="0 0 512.000000 512.000000"
 preserveAspectRatio="xMidYMid meet">
<metadata>
Created by potrace 1.16, written by Peter Selinger 2001-2019
</metadata>
<g transform="translate(0.000000,512.000000) scale(0.100000,-0.100000)"
fill="#FF5E41" stroke="none">
<path d="M1319 4489 c-103 -16 -177 -99 -188 -213 l-6 -61 -86 -6 c-137 -9
-247 -79 -303 -194 -34 -71 -40 -128 -61 -600 -9 -192 -22 -487 -30 -655 -34
-694 -46 -959 -60 -1223 -15 -298 -11 -367 27 -440 33 -66 112 -142 179 -172
66 -29 53 -28 1164 -80 309 -14 944 -45 1330 -64 94 -5 197 -5 230 -1 73 9
151 47 196 95 19 20 55 52 81 72 73 53 175 178 219 268 56 115 79 216 80 350
0 193 -51 346 -166 489 l-55 69 5 66 c3 36 12 219 21 406 8 187 19 428 24 535
34 672 34 678 -18 773 -53 98 -182 186 -275 188 -62 1 -69 9 -72 81 -5 98 -45
161 -128 203 -149 74 -312 -22 -331 -196 l-7 -61 -142 6 c-78 3 -182 9 -232
11 -49 3 -234 12 -410 20 -176 9 -405 20 -510 25 -104 5 -193 10 -197 10 -5 0
-8 24 -8 53 0 75 -16 123 -57 168 -59 65 -129 91 -214 78z m95 -182 c17 -20
18 -34 12 -172 -8 -176 -17 -200 -81 -200 -29 0 -42 6 -56 25 -16 23 -17 39
-10 177 8 157 13 176 56 193 27 11 56 3 79 -23z m1964 -90 c21 -23 22 -29 16
-170 -4 -81 -12 -157 -18 -169 -17 -34 -52 -48 -88 -36 -47 17 -52 39 -41 207
7 124 12 153 27 170 26 29 76 27 104 -2z m-2289 -163 c30 -6 31 -8 31 -61 0
-122 106 -223 234 -223 52 0 111 28 155 71 40 40 56 75 66 143 l8 49 146 -7
c80 -3 178 -9 216 -11 39 -3 264 -14 500 -25 237 -11 476 -22 531 -26 l101 -6
6 -60 c7 -74 45 -140 105 -182 34 -24 56 -31 107 -34 126 -8 225 70 245 194 5
31 11 59 14 61 9 10 95 -10 132 -30 21 -12 52 -42 69 -66 30 -43 30 -43 29
-177 -1 -74 -4 -137 -8 -141 -6 -6 -291 5 -1051 42 -154 7 -638 30 -1075 50
-437 21 -798 41 -801 44 -3 3 -2 60 2 127 10 168 41 222 148 260 42 15 49 16
90 8z m133 -579 c166 -8 449 -22 628 -30 1115 -51 1822 -86 1868 -91 l52 -5 0
-47 c0 -26 -7 -180 -15 -342 -8 -162 -17 -351 -20 -420 -3 -69 -8 -164 -11
-212 l-6 -87 -61 30 c-33 17 -103 42 -155 55 -257 65 -529 -2 -716 -177 -133
-124 -198 -234 -238 -398 -26 -110 -21 -320 10 -416 39 -121 128 -264 208
-335 20 -17 34 -33 32 -35 -2 -2 -82 1 -178 6 -188 10 -817 40 -1365 64 -187
9 -357 20 -378 26 -51 14 -112 71 -132 124 -18 45 -18 31 10 580 10 191 35
713 55 1155 11 245 23 473 26 508 l6 62 38 0 c21 0 175 -7 342 -15z m2243
-1300 c242 -63 421 -259 463 -507 43 -255 -76 -508 -301 -642 -103 -61 -183
-81 -322 -80 -122 0 -168 9 -265 52 -147 64 -294 240 -336 403 -22 85 -23 244
-1 328 57 213 232 387 448 445 73 20 239 20 314 1z"/>
<path d="M1608 1813 c-44 -48 -58 -76 -58 -115 0 -29 6 -41 29 -57 51 -37 91
-23 139 47 39 57 41 94 7 127 -34 35 -83 34 -117 -2z"/>
<path d="M3462 1933 c-12 -5 -102 -136 -102 -148 0 -3 -17 -34 -38 -68 -107
-173 -116 -208 -59 -250 55 -42 183 -107 208 -107 33 0 65 24 73 55 10 39 -18
80 -74 111 -27 15 -50 32 -50 37 0 6 35 69 77 141 48 82 76 142 76 160 0 50
-62 89 -111 69z"/>
</g>
</svg>
