<?xml version="1.0" standalone="no"?>
<!DOCTYPE svg PUBLIC "-//W3C//DTD SVG 20010904//EN"
 "http://www.w3.org/TR/2001/REC-SVG-20010904/DTD/svg10.dtd">
<svg version="1.0" xmlns="http://www.w3.org/2000/svg"
 width="512.000000pt" height="512.000000pt" viewBox="0 0 512.000000 512.000000"
 preserveAspectRatio="xMidYMid meet">
<metadata>
Created by potrace 1.16, written by Peter Selinger 2001-2019
</metadata>
<g transform="translate(0.000000,512.000000) scale(0.100000,-0.100000)"
fill="#FF5E41" stroke="none">
<path d="M3295 4388 c-103 -23 -175 -119 -175 -234 l0 -63 -42 -5 c-24 -3 -86
-8 -138 -11 -607 -35 -947 -55 -1005 -59 -38 -3 -125 -8 -191 -12 l-122 -7 -7
54 c-9 69 -29 117 -63 152 -112 119 -305 88 -378 -59 -12 -26 -19 -61 -19
-106 l0 -66 -55 -7 c-131 -17 -230 -84 -290 -197 -44 -81 -47 -137 -26 -463 9
-137 25 -403 36 -590 19 -328 36 -604 45 -750 2 -38 7 -115 10 -170 12 -215
20 -345 40 -675 13 -215 30 -273 105 -354 48 -52 140 -102 206 -112 39 -6 339
6 529 21 33 3 148 9 255 15 107 6 301 17 430 25 129 8 386 24 570 35 947 56
911 52 992 108 95 65 155 163 165 266 5 53 -1 191 -22 516 -3 41 -12 188 -20
325 -8 138 -28 475 -45 750 -16 275 -37 624 -45 775 -18 303 -26 364 -55 425
-23 47 -85 115 -138 150 -46 30 -140 55 -209 55 l-53 0 0 48 c-1 62 -27 118
-79 165 -61 55 -128 73 -206 55z m100 -170 c24 -21 27 -31 34 -138 12 -178 10
-209 -18 -231 -30 -25 -73 -24 -96 1 -19 21 -33 139 -35 282 0 60 2 68 26 87
34 27 57 26 89 -1z m-1965 -116 c19 -15 24 -33 31 -103 4 -46 8 -121 8 -166 1
-77 -1 -83 -25 -102 -33 -26 -54 -26 -87 -1 -27 22 -30 37 -43 242 -5 95 -5
98 20 123 30 29 65 32 96 7z m2308 -161 c47 -24 87 -66 105 -111 8 -19 18 -88
21 -152 l7 -118 -29 0 c-33 0 -2253 -132 -2791 -166 -82 -5 -105 -4 -112 7 -5
8 -9 69 -9 137 0 101 3 129 19 160 36 70 104 112 181 112 40 0 40 0 40 -37 1
-76 57 -159 135 -201 38 -20 138 -20 185 0 80 34 139 125 140 214 l0 52 63 6
c34 3 184 13 332 21 459 26 936 54 1022 61 l82 6 6 -39 c12 -72 36 -121 79
-161 151 -139 386 -22 386 192 l0 36 50 0 c30 0 66 -8 88 -19z m146 -608 c3
-38 8 -111 11 -163 3 -52 12 -205 20 -340 8 -135 22 -360 30 -500 8 -140 17
-289 20 -330 17 -246 45 -752 45 -816 0 -110 -37 -173 -125 -210 -37 -15 -247
-30 -1105 -80 l-115 -6 51 53 c173 181 249 410 215 650 -19 134 -60 239 -137
357 -85 127 -281 261 -454 308 -73 21 -251 19 -360 -2 -79 -16 -193 -59 -222
-84 -7 -6 -43 -33 -80 -60 -74 -55 -173 -167 -218 -246 -33 -56 -62 -145 -81
-242 -16 -84 -6 -277 19 -362 39 -131 86 -206 202 -322 l108 -108 -42 -1 c-22
0 -50 -2 -61 -4 -11 -2 -101 -7 -200 -11 l-180 -6 -50 33 c-32 22 -57 50 -72
79 -23 47 -21 23 -53 580 -5 91 -12 203 -15 250 -3 47 -14 238 -25 425 -11
187 -29 486 -40 665 -11 179 -20 339 -20 356 l0 31 205 12 c113 6 276 16 363
21 86 6 384 24 662 40 708 42 1152 69 1385 84 110 7 225 14 256 15 l57 1 6
-67z m-1570 -1238 c158 -41 332 -182 400 -325 97 -202 85 -445 -30 -619 -145
-220 -406 -329 -658 -276 -234 50 -424 233 -482 465 -25 98 -15 273 19 363 71
183 227 330 407 384 93 27 255 31 344 8z"/>
<path d="M2123 1720 c-30 -12 -41 -37 -49 -112 l-7 -66 -36 4 c-181 19 -284
23 -304 12 -55 -29 -63 -83 -18 -121 25 -21 45 -26 153 -35 276 -25 301 -26
328 -4 27 22 38 81 39 213 1 60 -3 79 -16 92 -24 21 -63 28 -90 17z"/>
</g>
</svg>
