<?xml version="1.0" standalone="no"?>
<!DOCTYPE svg PUBLIC "-//W3C//DTD SVG 20010904//EN"
 "http://www.w3.org/TR/2001/REC-SVG-20010904/DTD/svg10.dtd">
<svg version="1.0" xmlns="http://www.w3.org/2000/svg"
 width="512.000000pt" height="512.000000pt" viewBox="0 0 512.000000 512.000000"
 preserveAspectRatio="xMidYMid meet">
<metadata>
Created by potrace 1.16, written by Peter Selinger 2001-2019
</metadata>
<g transform="translate(0.000000,512.000000) scale(0.100000,-0.100000)"
fill="#FF5E41" stroke="none">
<path d="M1297 4596 c-62 -17 -94 -41 -133 -99 -23 -33 -34 -63 -39 -107 l-7
-60 -62 0 c-122 0 -226 -51 -298 -146 -22 -29 -46 -75 -54 -101 -10 -30 -26
-205 -44 -463 -16 -228 -34 -485 -40 -570 -6 -85 -24 -351 -40 -590 -17 -239
-39 -570 -51 -735 -12 -165 -19 -334 -17 -375 6 -97 35 -158 109 -231 86 -85
125 -97 388 -114 119 -8 275 -19 346 -25 72 -5 204 -14 295 -20 91 -6 392 -26
670 -45 278 -19 642 -44 810 -55 l305 -21 70 22 c60 20 79 32 136 88 111 111
104 71 164 956 8 127 33 489 55 805 22 316 47 683 56 815 20 301 17 352 -26
433 -59 111 -162 183 -282 197 l-58 7 0 62 c0 214 -233 325 -385 185 -44 -41
-75 -106 -75 -160 0 -15 -2 -33 -5 -41 -6 -14 -4 -14 -240 2 -322 22 -751 51
-980 65 -132 9 -250 18 -261 20 -19 4 -22 12 -22 67 0 36 -7 81 -17 106 -22
54 -85 108 -149 127 -58 17 -57 17 -119 1z m88 -156 c40 -15 45 -45 34 -202
-12 -178 -31 -212 -105 -194 -44 11 -52 47 -43 186 12 174 15 187 47 205 33
17 34 17 67 5z m1985 -150 c23 -23 25 -78 11 -243 -11 -113 -24 -137 -78 -137
-47 0 -73 29 -73 83 1 106 20 270 35 293 20 31 76 33 105 4z m-2260 -177 c1
-109 69 -199 169 -223 135 -32 255 45 282 181 6 33 14 61 18 63 3 2 191 -9
416 -25 566 -39 1018 -69 1049 -69 25 0 26 -3 26 -52 0 -95 60 -188 142 -222
50 -21 134 -20 183 3 77 36 135 120 135 197 l0 36 55 -4 c69 -6 130 -45 163
-106 25 -45 30 -121 16 -249 -7 -74 12 -69 -204 -53 -268 19 -579 40 -800 55
-124 8 -254 17 -290 20 -127 10 -209 15 -515 35 -170 11 -368 25 -440 30 -272
22 -552 40 -613 40 -46 0 -64 4 -68 15 -10 26 13 240 29 271 21 40 66 84 102
100 17 7 56 13 88 14 l57 0 0 -57z m180 -528 c423 -28 2236 -151 2367 -161 46
-3 85 -9 88 -14 3 -4 0 -66 -5 -136 -5 -71 -28 -397 -50 -724 -101 -1499 -93
-1401 -120 -1445 -26 -42 -67 -77 -110 -95 -33 -14 -61 -13 -535 20 -77 5
-176 12 -220 15 -44 3 -105 7 -135 10 -71 6 -167 12 -365 25 -88 5 -188 13
-223 16 l-63 6 90 84 c103 97 148 160 190 268 73 181 79 422 15 586 -28 75
-124 211 -199 285 -86 84 -85 83 -162 123 -154 78 -320 111 -465 93 -101 -12
-256 -63 -318 -104 -169 -113 -297 -277 -345 -441 -9 -32 -18 -56 -19 -54 -7
9 106 1631 115 1656 7 19 14 22 46 17 21 -3 211 -17 423 -30z m340 -1217 c163
-37 326 -171 405 -333 54 -109 69 -182 62 -305 -14 -270 -170 -476 -433 -571
-48 -18 -82 -22 -184 -23 -112 0 -133 3 -205 28 -141 48 -244 129 -326 253
-64 98 -90 176 -96 294 -8 133 9 222 63 329 71 141 204 260 347 310 108 38
250 45 367 18z m-924 -768 c27 -140 100 -276 202 -382 l46 -48 -61 0 c-127 0
-223 86 -225 201 -1 64 13 321 18 316 2 -1 11 -41 20 -87z"/>
<path d="M1273 2145 c-44 -31 -39 -60 42 -256 86 -208 96 -226 130 -235 32 -8
222 69 253 102 26 30 27 45 7 84 -20 40 -57 48 -114 25 -89 -34 -80 -42 -145
120 -35 88 -67 152 -80 160 -26 19 -66 19 -93 0z"/>
</g>
</svg>
