<?xml version="1.0" standalone="no"?>
<!DOCTYPE svg PUBLIC "-//W3C//DTD SVG 20010904//EN"
 "http://www.w3.org/TR/2001/REC-SVG-20010904/DTD/svg10.dtd">
<svg version="1.0" xmlns="http://www.w3.org/2000/svg"
 width="512.000000pt" height="512.000000pt" viewBox="0 0 512.000000 512.000000"
 preserveAspectRatio="xMidYMid meet">
<metadata>
Created by potrace 1.16, written by Peter Selinger 2001-2019
</metadata>
<g transform="translate(0.000000,512.000000) scale(0.100000,-0.100000)"
fill="#FF5E41" stroke="none">
<path d="M1275 4381 c-85 -39 -134 -117 -135 -213 l0 -58 -42 0 c-53 0 -130
-20 -183 -48 -53 -26 -131 -110 -158 -170 l-22 -47 -3 -1370 c-2 -1020 0
-1383 9 -1421 24 -104 127 -215 234 -252 46 -16 148 -17 1325 -20 829 -2 1302
1 1352 7 45 6 99 21 126 35 64 33 136 106 170 175 l27 56 0 1390 0 1390 -27
57 c-31 67 -107 147 -168 178 -23 12 -80 27 -126 33 l-84 11 0 51 c0 59 -34
137 -76 177 -68 63 -173 76 -261 33 -79 -40 -123 -114 -123 -211 l0 -54 -755
0 -755 0 0 48 c0 26 -5 63 -10 83 -13 48 -75 118 -124 140 -53 24 -139 24
-191 0z m145 -161 c18 -18 20 -33 20 -180 0 -147 -2 -162 -20 -180 -24 -24
-77 -26 -102 -3 -16 14 -18 34 -18 181 0 140 3 168 17 184 22 24 77 24 103 -2z
m1970 0 c18 -18 20 -33 20 -180 0 -147 -2 -162 -20 -180 -24 -24 -77 -26 -102
-3 -16 14 -18 34 -18 181 0 140 3 168 17 184 22 24 77 24 103 -2z m-2250 -307
c0 -92 54 -178 135 -214 47 -22 133 -24 178 -6 81 35 147 130 147 215 l0 42
755 0 755 0 0 -47 c1 -124 102 -222 230 -223 121 0 214 89 227 218 l6 55 60
-6 c74 -7 130 -43 164 -106 21 -40 23 -57 23 -173 l0 -128 -1470 0 -1470 0 0
100 c0 136 13 190 58 240 41 45 95 69 160 70 l42 0 0 -37z m2680 -1239 l0
-706 -43 58 c-158 215 -372 324 -631 324 -184 0 -300 -34 -443 -129 -171 -113
-265 -243 -321 -440 -37 -130 -35 -289 4 -431 36 -130 78 -200 185 -313 l91
-97 -805 0 -805 0 -53 28 c-39 20 -62 41 -84 77 l-30 48 -3 1144 -2 1143 1470
0 1470 0 0 -706z m-510 -500 c214 -64 391 -246 441 -454 8 -30 14 -100 13
-155 0 -214 -93 -386 -277 -516 -117 -82 -265 -116 -424 -98 -186 21 -348 123
-454 286 -113 173 -125 422 -29 618 55 114 204 251 323 298 121 48 288 57 407
21z"/>
<path d="M1165 2995 c-30 -29 -32 -69 -7 -106 9 -15 57 -59 105 -99 105 -86
149 -99 191 -57 17 17 26 37 26 58 0 34 -13 49 -145 162 -90 77 -127 86 -170
42z"/>
<path d="M3301 1639 c-96 -16 -186 -35 -200 -42 -46 -22 -51 -49 -31 -176 15
-101 21 -118 44 -138 32 -27 47 -28 86 -8 37 19 45 50 33 127 -7 42 -7 61 1
64 6 2 74 13 151 24 77 12 150 28 162 35 48 32 52 77 10 123 -26 28 -36 27
-256 -9z"/>
</g>
</svg>
