<?xml version="1.0" standalone="no"?>
<!DOCTYPE svg PUBLIC "-//W3C//DTD SVG 20010904//EN"
 "http://www.w3.org/TR/2001/REC-SVG-20010904/DTD/svg10.dtd">
<svg version="1.0" xmlns="http://www.w3.org/2000/svg"
 width="512.000000pt" height="512.000000pt" viewBox="0 0 512.000000 512.000000"
 preserveAspectRatio="xMidYMid meet">
<metadata>
Created by potrace 1.16, written by Peter Selinger 2001-2019
</metadata>
<g transform="translate(0.000000,512.000000) scale(0.100000,-0.100000)"
fill="#FF5E41" stroke="none">
<path d="M1282 4575 c-91 -40 -139 -106 -150 -207 l-7 -63 -75 -5 c-135 -10
-242 -82 -304 -203 -26 -53 -29 -69 -37 -224 -4 -93 -13 -361 -19 -598 -6
-236 -17 -682 -26 -990 -8 -308 -16 -666 -17 -795 l-2 -235 27 -58 c37 -79
120 -159 195 -187 65 -25 144 -30 908 -49 790 -21 1212 -32 1484 -40 150 -4
298 -4 328 1 113 18 214 92 265 195 39 80 43 124 57 718 6 226 20 784 33 1242
24 919 26 890 -37 989 -64 100 -154 154 -282 169 l-63 7 0 50 c0 100 -44 179
-121 218 -83 43 -171 35 -247 -20 -54 -39 -83 -98 -90 -179 l-5 -64 -176 7
c-97 3 -356 11 -576 16 -220 5 -480 12 -577 16 l-178 7 0 61 c0 76 -24 129
-78 178 -62 56 -158 74 -230 43z m129 -163 c22 -18 22 -23 20 -177 -1 -87 -6
-166 -11 -176 -13 -23 -60 -38 -87 -28 -12 4 -29 19 -38 33 -15 22 -16 45 -10
177 7 129 11 155 26 170 24 24 70 24 100 1z m1969 -52 c23 -23 23 -16 20 -190
-1 -91 -6 -143 -16 -161 -24 -46 -72 -52 -110 -14 l-26 26 7 157 c7 139 10
160 28 180 26 28 70 29 97 2z m-2256 -232 c3 -13 7 -44 9 -71 6 -59 43 -117
99 -154 37 -25 51 -28 123 -28 72 0 86 3 123 28 56 37 90 91 104 167 l12 63
226 -6 c124 -4 434 -11 690 -17 256 -7 491 -15 524 -18 l59 -7 4 -54 c10 -127
102 -213 228 -213 127 0 210 78 230 216 l7 49 50 -6 c68 -8 132 -48 163 -101
24 -42 25 -50 23 -177 l-3 -134 -165 3 c-91 1 -325 7 -520 12 -195 6 -623 17
-950 25 -327 9 -737 20 -910 25 -173 5 -333 10 -354 10 l-39 0 6 125 c4 83 11
136 22 158 34 73 117 125 202 126 26 1 34 -4 37 -21z m251 -563 c99 -3 536
-14 970 -25 1018 -25 1163 -29 1320 -36 l130 -6 -3 -82 c-5 -174 -42 -1585
-47 -1826 -9 -388 -10 -394 -79 -463 -55 -55 -83 -58 -458 -47 -183 5 -386 10
-452 11 l-118 1 80 77 c170 163 242 330 243 566 0 282 -95 459 -361 668 -67
53 -169 92 -298 113 -285 46 -582 -80 -765 -326 -63 -84 -72 -102 -110 -223
-28 -91 -32 -114 -30 -213 4 -253 59 -395 215 -558 37 -39 66 -72 64 -73 -7
-8 -720 19 -742 28 -46 17 -93 60 -115 106 -22 45 -22 49 -15 372 4 179 11
457 16 616 5 160 14 497 20 750 6 253 13 489 16 524 l6 63 166 -6 c92 -3 248
-8 347 -11z m1000 -1233 c107 -34 214 -108 286 -196 208 -254 192 -610 -36
-839 -121 -122 -236 -175 -396 -184 -133 -8 -222 9 -328 63 -139 70 -259 201
-310 339 -45 119 -48 307 -7 423 70 199 242 358 441 409 72 18 273 10 350 -15z"/>
<path d="M1665 3448 c-19 -18 -60 -76 -91 -128 -98 -163 -164 -260 -177 -260
-6 0 -46 31 -88 70 -42 38 -89 74 -103 80 -72 27 -135 -64 -89 -129 32 -47
248 -228 282 -237 39 -11 74 8 106 58 17 26 47 73 67 105 21 32 68 103 106
158 90 133 132 209 132 240 0 14 -11 37 -25 50 -35 36 -77 33 -120 -7z"/>
<path d="M2014 1928 c-22 -10 -44 -47 -44 -72 0 -8 16 -37 35 -66 19 -29 35
-57 35 -64 0 -6 -51 -45 -112 -86 -136 -91 -158 -112 -158 -156 0 -38 38 -74
77 -74 27 0 306 185 361 239 45 45 40 66 -43 185 -76 110 -95 121 -151 94z"/>
</g>
</svg>
