<?xml version="1.0" standalone="no"?>
<!DOCTYPE svg PUBLIC "-//W3C//DTD SVG 20010904//EN"
 "http://www.w3.org/TR/2001/REC-SVG-20010904/DTD/svg10.dtd">
<svg version="1.0" xmlns="http://www.w3.org/2000/svg"
 width="512.000000pt" height="512.000000pt" viewBox="0 0 512.000000 512.000000"
 preserveAspectRatio="xMidYMid meet">
<metadata>
Created by potrace 1.16, written by Peter Selinger 2001-2019
</metadata>
<g transform="translate(0.000000,512.000000) scale(0.100000,-0.100000)"
fill="#FF5E41" stroke="none">
<path d="M1255 4549 c-80 -42 -118 -100 -130 -196 l-7 -53 -37 0 c-176 0 -323
-99 -374 -251 -16 -48 -20 -86 -42 -459 -15 -246 -39 -628 -70 -1120 -76
-1220 -76 -1188 -33 -1280 28 -61 90 -129 153 -166 68 -39 74 -40 700 -79 132
-8 564 -35 960 -60 396 -25 794 -50 885 -56 191 -12 225 -9 307 30 85 40 165
126 188 201 4 14 29 54 56 89 96 124 146 267 155 441 8 141 -17 257 -85 395
l-50 100 9 135 c5 74 18 281 29 460 12 179 23 361 26 405 45 689 46 728 21
806 -40 126 -152 220 -289 243 l-72 12 -5 75 c-4 53 -12 85 -28 111 -85 137
-252 159 -363 48 -46 -46 -69 -102 -69 -169 0 -16 -4 -32 -9 -35 -5 -3 -145 3
-312 14 -167 11 -421 26 -564 35 -143 9 -341 22 -440 28 l-180 12 3 42 c8 97
-49 202 -131 242 -59 28 -148 28 -202 0z m134 -144 c16 -8 31 -22 35 -31 6
-15 -1 -230 -9 -279 -2 -11 -4 -26 -4 -32 -2 -24 -41 -53 -71 -53 -17 0 -39 9
-51 21 -21 21 -21 27 -14 172 8 160 14 189 49 205 29 14 33 14 65 -3z m1982
-136 c21 -21 22 -27 15 -172 -9 -183 -18 -207 -81 -207 -69 0 -78 28 -65 198
5 75 10 142 10 148 0 5 9 20 20 32 27 28 73 29 101 1z m-2260 -201 c6 -75 35
-129 91 -171 145 -108 345 -19 368 163 l5 45 70 -3 c39 -1 239 -13 445 -27
206 -13 503 -31 660 -40 157 -9 294 -18 306 -21 18 -3 21 -11 23 -60 3 -96 44
-162 126 -203 40 -20 58 -23 115 -19 115 9 188 74 211 189 l12 59 37 0 c51 0
102 -23 143 -65 50 -51 59 -95 51 -237 l-7 -121 -101 7 c-56 3 -171 11 -256
16 -85 5 -193 12 -240 15 -151 10 -878 55 -1135 70 -137 9 -356 22 -485 31
-129 8 -340 21 -469 29 -128 7 -237 17 -241 22 -5 4 -4 61 1 127 7 99 13 126
34 162 42 71 102 104 185 101 l45 -2 6 -67z m34 -508 c110 -6 297 -17 415 -25
118 -8 370 -24 560 -35 354 -21 550 -33 795 -50 77 -5 228 -14 335 -20 107 -6
265 -17 350 -23 l155 -12 -2 -30 c-1 -17 -17 -275 -34 -575 -18 -300 -34 -547
-35 -548 -1 -2 -40 19 -86 47 -99 61 -204 97 -334 113 -455 56 -867 -319 -866
-787 0 -60 7 -137 15 -171 29 -122 106 -258 210 -371 l40 -43 -44 0 c-24 0
-186 9 -359 20 -173 11 -353 22 -400 25 -47 3 -184 12 -305 20 -121 8 -310 19
-420 25 -289 16 -324 23 -379 71 -79 70 -79 71 -42 654 14 220 42 654 61 965
44 728 46 753 52 763 3 5 31 6 62 3 31 -3 146 -11 256 -16z m2221 -1338 c192
-60 347 -210 415 -402 19 -54 23 -86 24 -190 0 -78 -5 -144 -14 -175 -46 -164
-178 -320 -331 -392 -47 -23 -107 -46 -134 -52 -70 -17 -224 -15 -298 4 -217
56 -397 235 -452 451 -20 79 -21 228 0 308 59 231 238 406 474 462 73 18 236
10 316 -14z"/>
<path d="M1589 1907 c-20 -15 -120 -151 -229 -311 -47 -68 -97 -132 -113 -143
-24 -16 -39 -40 -42 -68 -4 -32 46 -91 80 -96 51 -8 71 10 166 143 170 241
259 380 259 405 0 31 -51 83 -82 83 -13 0 -30 -6 -39 -13z"/>
<path d="M3370 1884 c-26 -25 -98 -94 -159 -154 -144 -143 -144 -143 -18 -273
81 -83 109 -97 155 -73 59 31 51 96 -22 166 l-36 34 117 118 c107 107 117 121
117 154 0 26 -7 42 -23 55 -39 32 -76 24 -131 -27z"/>
</g>
</svg>
