<?xml version="1.0" standalone="no"?>
<!DOCTYPE svg PUBLIC "-//W3C//DTD SVG 20010904//EN"
 "http://www.w3.org/TR/2001/REC-SVG-20010904/DTD/svg10.dtd">
<svg version="1.0" xmlns="http://www.w3.org/2000/svg"
 width="512.000000pt" height="512.000000pt" viewBox="0 0 512.000000 512.000000"
 preserveAspectRatio="xMidYMid meet">
<metadata>
Created by potrace 1.16, written by Peter Selinger 2001-2019
</metadata>
<g transform="translate(0.000000,512.000000) scale(0.100000,-0.100000)"
fill="#FF5E41" stroke="none">
<path d="M1280 4438 c-19 -7 -55 -33 -81 -58 -50 -48 -69 -94 -69 -166 l0 -41
-79 -6 c-128 -8 -231 -67 -296 -168 -48 -74 -53 -121 -75 -594 -11 -247 -24
-551 -30 -675 -66 -1457 -69 -1546 -58 -1592 31 -140 157 -262 290 -282 44 -7
339 -22 673 -36 267 -11 1321 -56 1485 -64 351 -18 368 -18 390 -6 17 9 33 9
71 0 46 -11 53 -10 113 18 127 60 196 152 215 287 5 39 15 198 21 355 6 157
13 317 15 355 3 39 10 185 15 325 6 140 15 343 20 450 5 107 12 258 15 335 3
77 10 230 16 340 5 110 11 283 12 385 l2 185 -29 60 c-57 115 -155 186 -288
208 l-69 12 -3 67 c-4 123 -90 218 -205 226 -139 10 -234 -67 -251 -204 -5
-36 -10 -68 -13 -70 -2 -3 -318 9 -700 26 -383 16 -719 30 -746 30 l-51 0 0
60 c0 98 -47 183 -122 221 -49 25 -139 33 -188 17z m130 -170 c23 -21 23 -23
17 -174 -4 -97 -11 -160 -19 -173 -16 -27 -64 -44 -87 -31 -40 21 -44 37 -42
168 2 143 12 201 37 219 27 20 67 16 94 -9z m1971 -89 c20 -20 21 -27 14 -172
-8 -179 -17 -202 -80 -202 -29 0 -42 6 -56 25 -17 23 -18 38 -11 177 7 127 11
155 26 172 25 28 79 28 107 0z m-2261 -219 c0 -135 97 -232 229 -231 110 0
200 73 222 180 17 82 16 82 41 77 13 -3 102 -7 198 -11 275 -9 1106 -44 1195
-51 l80 -5 3 -56 c6 -97 43 -157 125 -198 71 -35 138 -34 208 3 69 36 106 88
121 170 l12 62 35 0 c79 -1 183 -82 196 -153 8 -41 3 -253 -6 -262 -4 -3 -258
5 -565 19 -308 14 -937 41 -1399 61 -462 20 -869 38 -904 41 l-64 6 5 117 c6
135 25 193 80 234 47 36 75 46 136 46 l52 1 0 -50z m-5 -525 c136 -5 380 -16
685 -30 243 -11 785 -35 1015 -45 132 -5 285 -12 340 -15 55 -2 215 -10 355
-16 140 -6 257 -13 259 -16 5 -4 -8 -360 -34 -923 -7 -173 -23 -538 -35 -810
-12 -272 -26 -511 -31 -531 -13 -52 -61 -113 -105 -135 -49 -24 84 -28 -1411
38 -150 6 -273 14 -272 17 1 3 36 38 78 76 93 84 150 164 190 265 41 106 54
178 55 310 1 177 -23 263 -120 428 -19 31 -22 42 -11 42 8 0 26 11 41 25 40
37 36 81 -16 147 -50 64 -64 75 -102 84 -38 8 -78 -22 -91 -69 l-10 -36 -70
45 c-192 121 -418 147 -665 74 -72 -22 -228 -130 -308 -214 -67 -71 -72 -74
-72 -49 0 16 7 174 15 353 8 179 19 429 25 555 5 127 12 279 16 338 l6 108 62
-5 c33 -3 129 -8 211 -11z m428 -1210 c99 -17 193 -61 277 -130 80 -64 129
-128 174 -227 41 -89 56 -156 56 -251 -1 -170 -58 -313 -175 -436 -130 -136
-258 -193 -435 -194 -58 -1 -130 5 -160 12 -132 31 -278 129 -360 241 -86 116
-120 222 -120 370 0 166 51 303 157 420 156 171 352 237 586 195z"/>
<path d="M1345 2017 c-32 -27 -33 -33 -21 -252 13 -252 23 -268 168 -259 159
10 188 24 188 87 0 56 -32 77 -117 77 l-71 0 -6 63 c-3 34 -8 107 -12 161 -6
86 -10 103 -30 123 -29 29 -65 29 -99 0z"/>
</g>
</svg>
