<?xml version="1.0" standalone="no"?>
<!DOCTYPE svg PUBLIC "-//W3C//DTD SVG 20010904//EN"
 "http://www.w3.org/TR/2001/REC-SVG-20010904/DTD/svg10.dtd">
<svg version="1.0" xmlns="http://www.w3.org/2000/svg"
 width="512.000000pt" height="512.000000pt" viewBox="0 0 512.000000 512.000000"
 preserveAspectRatio="xMidYMid meet">
<metadata>
Created by potrace 1.16, written by Peter Selinger 2001-2019
</metadata>
<g transform="translate(0.000000,512.000000) scale(0.100000,-0.100000)"
fill="#FF5E41" stroke="none">
<path d="M1310 4361 c-67 -22 -122 -66 -151 -121 -7 -14 -15 -56 -18 -95 l-6
-70 -72 -6 c-142 -11 -262 -101 -312 -233 -21 -57 -21 -58 -21 -1426 l0 -1369
22 -58 c27 -74 107 -159 185 -199 l58 -29 1345 -3 1345 -3 95 22 c289 66 532
307 595 589 21 95 22 264 1 353 -44 188 -164 362 -327 474 l-69 47 0 766 c0
688 -2 771 -17 816 -48 142 -169 239 -315 253 l-73 6 -7 68 c-12 119 -77 196
-189 218 -92 19 -175 -16 -233 -99 -24 -34 -31 -56 -35 -114 l-6 -73 -750 0
-750 0 -6 67 c-10 125 -93 212 -209 222 -30 3 -66 2 -80 -3z m104 -172 l26
-20 0 -164 0 -164 -26 -20 c-33 -26 -54 -26 -87 -1 -34 27 -40 68 -31 222 6
108 10 134 25 149 25 25 60 24 93 -2z m1975 -5 c19 -24 21 -40 21 -185 l0
-158 -26 -20 c-31 -24 -43 -26 -78 -10 -42 19 -43 31 -37 322 2 72 78 105 120
51z m-2248 -326 c21 -193 238 -282 376 -155 56 51 72 82 81 155 l7 57 750 0
750 0 6 -60 c10 -103 75 -178 177 -205 78 -20 175 15 234 85 23 27 48 101 48
142 0 42 14 48 83 33 37 -7 68 -22 94 -45 64 -54 73 -84 73 -229 l0 -126
-1471 0 -1471 0 4 128 c3 117 6 132 31 174 39 68 118 109 197 105 23 -2 26 -7
31 -59z m2679 -1039 l0 -521 -47 8 c-83 15 -291 10 -363 -9 -146 -39 -271
-116 -380 -235 -82 -88 -124 -158 -163 -269 -27 -77 -31 -105 -35 -220 -8
-251 58 -423 230 -595 l67 -68 -1042 0 c-986 0 -1044 1 -1082 19 -57 26 -101
79 -114 141 -8 35 -11 391 -11 1160 l0 1110 1470 0 1470 0 0 -521z m-8 -688
c37 -12 101 -44 143 -73 307 -205 374 -624 146 -908 -128 -159 -292 -240 -486
-240 -112 0 -201 22 -297 72 -232 120 -364 377 -328 636 12 91 25 133 64 209
74 148 245 284 400 319 90 20 272 13 358 -15z"/>
<path d="M3550 1940 c-19 -19 -20 -33 -20 -245 0 -271 -3 -264 113 -267 152
-4 178 -1 203 23 31 29 32 78 1 107 -17 16 -37 22 -92 24 l-70 3 -5 173 c-5
157 -7 175 -24 188 -29 21 -82 18 -106 -6z"/>
</g>
</svg>
