<?xml version="1.0" standalone="no"?>
<!DOCTYPE svg PUBLIC "-//W3C//DTD SVG 20010904//EN"
 "http://www.w3.org/TR/2001/REC-SVG-20010904/DTD/svg10.dtd">
<svg version="1.0" xmlns="http://www.w3.org/2000/svg"
 width="512.000000pt" height="512.000000pt" viewBox="0 0 512.000000 512.000000"
 preserveAspectRatio="xMidYMid meet">
<metadata>
Created by potrace 1.16, written by Peter Selinger 2001-2019
</metadata>
<g transform="translate(0.000000,512.000000) scale(0.100000,-0.100000)"
fill="#FF5E41" stroke="none">
<path d="M1323 4369 c-56 -10 -94 -31 -130 -73 -37 -41 -52 -83 -55 -151 -2
-27 -7 -53 -11 -56 -4 -3 -33 -7 -63 -8 -85 -3 -160 -36 -225 -97 -65 -62 -96
-120 -109 -201 -15 -91 -32 -2672 -19 -2736 16 -73 43 -122 99 -177 56 -57
105 -84 181 -99 38 -8 449 -14 1358 -20 l1303 -9 89 24 c154 41 268 111 386
238 78 84 151 215 180 326 24 88 23 298 -1 395 -36 146 -143 314 -259 405 -29
22 -61 48 -71 57 -17 14 -18 25 -12 142 3 69 6 419 7 778 0 495 -3 662 -12
695 -42 144 -168 246 -315 256 l-71 4 -5 67 c-6 75 -23 114 -70 161 -44 45
-103 70 -163 70 -115 0 -208 -84 -225 -202 -5 -35 -10 -69 -10 -75 0 -15 -263
-17 -1017 -6 l-480 6 -6 63 c-7 69 -25 114 -66 157 -49 54 -130 79 -208 66z
m100 -181 c15 -17 17 -42 17 -175 0 -150 -1 -155 -25 -178 -33 -34 -77 -33
-104 1 -19 24 -21 40 -21 170 0 84 5 153 11 168 22 48 86 56 122 14z m1966
-14 c19 -24 21 -40 21 -175 0 -139 -1 -149 -22 -173 -34 -37 -76 -39 -108 -4
-18 20 -20 35 -20 174 0 138 2 154 21 178 15 19 30 26 54 26 24 0 39 -7 54
-26z m-2258 -251 c0 -5 2 -30 5 -57 19 -193 240 -283 379 -155 51 47 70 85 80
158 l7 54 657 -6 c361 -4 697 -7 747 -7 l91 0 6 -55 c10 -94 73 -179 153 -205
59 -20 152 -9 201 24 48 32 91 89 97 131 3 17 8 47 11 69 l6 38 52 -6 c72 -10
131 -47 164 -104 27 -45 28 -53 28 -177 l0 -130 -35 1 c-19 1 -680 5 -1467 9
l-1433 8 0 126 c0 101 4 134 19 166 24 51 66 91 116 109 43 16 115 21 116 9z
m2414 -587 c28 -1 98 -3 158 -4 l107 -2 0 -523 c0 -288 -2 -526 -5 -529 -3 -3
-40 3 -83 13 -149 36 -339 21 -481 -39 -202 -85 -373 -271 -443 -481 -30 -90
-32 -105 -32 -236 0 -116 3 -154 22 -218 39 -135 92 -225 203 -341 l67 -71
-772 3 c-424 2 -889 6 -1033 10 l-261 7 -43 31 c-24 18 -54 52 -67 75 l-23 44
6 1040 c3 572 8 1072 10 1110 2 39 4 83 5 99 l0 29 1308 -8 c719 -5 1330 -9
1357 -9z m153 -1201 c97 -23 194 -77 275 -154 126 -121 186 -248 194 -416 9
-186 -42 -333 -162 -462 -117 -127 -254 -191 -425 -200 -243 -12 -452 101
-578 313 -113 189 -109 444 9 640 42 69 157 180 231 222 116 66 312 91 456 57z"/>
<path d="M3552 1943 c-26 -10 -40 -64 -67 -260 -37 -267 -41 -259 159 -283
l109 -13 29 31 c34 39 35 62 6 97 -18 19 -38 28 -88 36 -35 6 -66 12 -68 13
-1 2 6 73 18 159 21 165 19 196 -19 216 -20 11 -57 13 -79 4z"/>
</g>
</svg>
