<?xml version="1.0" standalone="no"?>
<!DOCTYPE svg PUBLIC "-//W3C//DTD SVG 20010904//EN"
 "http://www.w3.org/TR/2001/REC-SVG-20010904/DTD/svg10.dtd">
<svg version="1.0" xmlns="http://www.w3.org/2000/svg"
 width="512.000000pt" height="512.000000pt" viewBox="0 0 512.000000 512.000000"
 preserveAspectRatio="xMidYMid meet">
<metadata>
Created by potrace 1.16, written by Peter Selinger 2001-2019
</metadata>
<g transform="translate(0.000000,512.000000) scale(0.100000,-0.100000)"
fill="#FF5E41" stroke="none">
<path d="M1311 4669 c-100 -19 -167 -95 -179 -200 l-7 -64 -71 -6 c-90 -8
-136 -23 -199 -65 -90 -59 -149 -157 -160 -268 -3 -28 -30 -498 -60 -1044 -31
-547 -62 -1120 -71 -1275 -9 -155 -13 -311 -10 -347 12 -134 106 -253 237
-300 56 -19 101 -23 424 -40 257 -14 447 -24 1070 -60 792 -46 915 -52 1090
-54 157 -1 161 0 217 27 103 52 188 168 202 277 3 25 13 173 21 330 9 157 20
357 25 445 5 88 16 291 25 450 22 412 32 591 56 1005 11 201 19 397 17 437
-11 172 -152 319 -325 338 l-62 7 0 62 c0 69 -11 106 -47 153 -83 108 -253
116 -345 16 -39 -41 -58 -84 -65 -149 l-7 -57 -136 7 c-75 4 -296 15 -491 26
-195 10 -452 24 -570 30 -118 6 -234 13 -257 16 l-43 5 0 57 c0 156 -132 269
-279 241z m79 -164 c16 -8 32 -24 35 -36 11 -34 -6 -291 -21 -320 -23 -46 -77
-53 -113 -15 -22 23 -22 28 -16 162 8 158 16 197 48 212 30 14 34 14 67 -3z
m1971 -108 c35 -27 39 -50 30 -202 -8 -132 -11 -149 -32 -171 -28 -30 -68 -31
-99 -2 -23 21 -23 23 -16 176 3 84 11 162 16 172 20 38 70 51 101 27z m-2249
-220 c6 -72 23 -111 70 -157 89 -90 217 -93 313 -8 44 39 68 87 80 161 l6 39
77 -6 c42 -4 210 -13 372 -21 162 -8 455 -24 650 -35 195 -11 365 -20 378 -20
20 0 22 -5 22 -46 0 -143 92 -238 231 -239 56 0 73 4 115 30 61 38 102 103
111 173 l6 52 41 0 c60 -1 124 -37 163 -94 l33 -48 0 -127 c0 -69 -4 -132 -8
-139 -7 -10 -45 -10 -188 -2 -98 5 -388 21 -644 35 -256 13 -496 27 -535 30
-38 3 -245 14 -460 25 -214 11 -545 29 -735 40 -190 11 -351 20 -359 20 -11 0
-12 21 -6 118 4 64 14 133 22 152 31 76 111 129 194 130 l46 0 5 -63z m158
-522 c146 -8 517 -29 825 -45 308 -17 637 -35 730 -40 94 -5 296 -17 450 -25
154 -8 326 -18 383 -21 l102 -7 -1 -66 c-1 -159 -86 -1563 -93 -1536 -17 71
-59 175 -98 240 -50 85 -190 227 -271 274 -172 101 -412 135 -602 86 -82 -22
-211 -81 -263 -120 -35 -27 -156 -154 -203 -213 -21 -26 -70 -144 -94 -228
-46 -159 -27 -386 46 -539 30 -64 41 -80 132 -186 31 -37 57 -70 57 -73 0 -3
-24 -3 -52 -1 -29 3 -183 12 -343 20 -159 9 -400 22 -535 30 -135 8 -306 17
-380 20 -186 9 -228 18 -280 62 -23 20 -49 52 -56 70 -21 49 -19 114 26 883 6
96 24 423 40 725 16 303 32 588 36 633 l6 84 86 -6 c48 -3 206 -13 352 -21z
m1754 -1290 c226 -40 426 -235 481 -470 32 -133 10 -306 -54 -433 -57 -112
-194 -238 -316 -289 -85 -36 -136 -45 -240 -44 -206 1 -366 78 -490 233 -95
120 -135 234 -135 386 0 118 13 179 60 277 45 93 117 177 203 239 83 58 150
86 262 110 44 9 154 5 229 -9z m622 -976 c-9 -176 -31 -225 -119 -270 -30 -16
-54 -19 -113 -17 l-75 3 52 40 c72 56 165 176 211 269 21 44 38 86 38 93 0 7
3 13 6 13 4 0 4 -59 0 -131z"/>
<path d="M1491 1854 c-17 -14 -31 -30 -31 -36 0 -5 -32 -55 -72 -110 l-71
-102 -26 31 c-193 225 -204 232 -262 174 -51 -51 -37 -95 68 -211 194 -219
185 -210 230 -210 26 0 42 8 61 28 51 55 242 347 242 370 0 31 -25 78 -45 86
-33 12 -64 6 -94 -20z"/>
<path d="M2834 1767 c-23 -20 -29 -37 -40 -113 -19 -123 -18 -156 6 -181 27
-30 55 -36 87 -21 29 14 47 54 58 132 l6 38 47 -7 c73 -10 91 -13 183 -25 75
-10 91 -10 117 4 49 25 53 88 8 125 -13 11 -371 70 -428 71 -9 0 -29 -10 -44
-23z"/>
</g>
</svg>
