<?xml version="1.0" standalone="no"?>
<!DOCTYPE svg PUBLIC "-//W3C//DTD SVG 20010904//EN"
 "http://www.w3.org/TR/2001/REC-SVG-20010904/DTD/svg10.dtd">
<svg version="1.0" xmlns="http://www.w3.org/2000/svg"
 width="512.000000pt" height="512.000000pt" viewBox="0 0 512.000000 512.000000"
 preserveAspectRatio="xMidYMid meet">
<metadata>
Created by potrace 1.16, written by Peter Selinger 2001-2019
</metadata>
<g transform="translate(0.000000,512.000000) scale(0.100000,-0.100000)"
fill="#FF5E41" stroke="none">
<path d="M1287 4456 c-90 -33 -146 -116 -147 -218 l0 -58 -43 0 c-145 0 -276
-85 -341 -220 l-31 -65 -7 -1340 c-4 -889 -3 -1360 3 -1399 14 -78 40 -130 98
-189 57 -61 120 -93 202 -106 39 -6 566 -11 1359 -12 l1295 -2 60 23 c82 32
174 123 206 205 l23 60 8 1305 c5 718 7 1337 4 1377 -12 188 -147 325 -342
348 l-61 7 -5 62 c-11 137 -102 226 -230 226 -120 -1 -228 -99 -228 -207 0
-21 -3 -48 -6 -60 l-6 -23 -547 0 c-300 0 -637 3 -747 7 l-202 6 -4 61 c-6 66
-32 128 -70 163 -60 56 -162 77 -241 49z m133 -166 c18 -18 20 -33 20 -176 0
-85 -4 -164 -10 -174 -13 -24 -59 -39 -87 -29 -12 4 -29 19 -39 33 -14 23 -15
45 -9 178 5 116 11 157 23 171 21 23 77 22 102 -3z m1967 -12 c22 -21 23 -27
23 -177 0 -145 -1 -156 -22 -178 -31 -33 -80 -31 -108 4 -20 26 -21 37 -18
179 3 133 5 155 22 173 25 28 73 27 103 -1z m-2246 -325 c11 -119 90 -195 208
-201 137 -8 229 71 246 211 l7 57 332 -1 c182 -1 520 -5 751 -8 l419 -6 4 -45
c5 -69 20 -105 61 -147 56 -58 101 -76 180 -71 118 7 192 77 214 202 11 64 12
66 42 66 83 0 163 -51 196 -125 15 -32 19 -66 19 -162 l0 -123 -688 0 c-379 0
-1040 3 -1470 7 l-782 6 0 111 c0 61 5 128 11 149 23 83 114 149 199 145 l45
-3 6 -62z m2573 -520 l107 -6 -6 -1126 c-4 -717 -10 -1138 -17 -1159 -14 -46
-65 -101 -113 -123 -35 -16 -69 -19 -275 -19 l-235 0 57 55 c119 115 192 233
230 371 32 117 30 317 -4 430 -75 252 -302 473 -553 539 -33 9 -114 19 -180
22 -189 9 -318 -30 -480 -145 -93 -65 -147 -122 -201 -208 -94 -151 -130 -289
-121 -473 9 -211 89 -385 241 -529 l55 -52 -588 0 c-640 0 -622 -1 -691 57
-68 57 -70 68 -70 459 0 193 3 702 7 1132 l6 782 1362 0 c749 0 1410 -3 1469
-7z m-877 -1188 c229 -54 411 -227 474 -450 23 -81 18 -265 -8 -351 -60 -190
-238 -363 -424 -414 -321 -86 -639 74 -764 385 -24 60 -29 88 -33 190 -5 140
9 208 65 318 50 100 172 221 273 270 128 63 287 83 417 52z"/>
<path d="M1564 3110 c-12 -5 -45 -47 -74 -94 l-53 -86 -40 33 c-23 17 -66 53
-96 80 -67 59 -106 63 -145 16 -14 -17 -26 -38 -26 -47 0 -37 39 -84 130 -158
138 -112 170 -134 196 -134 28 0 84 47 104 87 25 51 85 148 103 167 31 35 26
93 -11 123 -28 24 -53 27 -88 13z"/>
<path d="M2640 1659 c-8 -5 -49 -25 -90 -43 -42 -19 -84 -44 -94 -55 -46 -51
2 -140 68 -125 17 3 52 17 77 30 l46 23 63 -137 c34 -75 72 -147 83 -159 42
-47 130 -12 130 52 0 30 -157 370 -186 403 -22 23 -69 29 -97 11z"/>
</g>
</svg>
