<?xml version="1.0" standalone="no"?>
<!DOCTYPE svg PUBLIC "-//W3C//DTD SVG 20010904//EN"
 "http://www.w3.org/TR/2001/REC-SVG-20010904/DTD/svg10.dtd">
<svg version="1.0" xmlns="http://www.w3.org/2000/svg"
 width="512.000000pt" height="512.000000pt" viewBox="0 0 512.000000 512.000000"
 preserveAspectRatio="xMidYMid meet">
<metadata>
Created by potrace 1.16, written by Peter Selinger 2001-2019
</metadata>
<g transform="translate(0.000000,512.000000) scale(0.100000,-0.100000)"
fill="#FF5E41" stroke="none">
<path d="M1275 4386 c-83 -36 -132 -109 -142 -210 l-6 -64 -76 -4 c-93 -6
-160 -33 -220 -91 -107 -104 -117 -144 -125 -503 -4 -153 -11 -459 -16 -679
-5 -220 -12 -521 -15 -670 -3 -148 -10 -437 -15 -642 -5 -217 -5 -395 0 -427
24 -150 142 -270 291 -295 30 -5 194 -12 364 -16 171 -3 371 -7 445 -10 74 -2
254 -7 400 -10 776 -15 1195 -25 1277 -30 121 -7 200 6 303 51 126 55 198 104
291 201 304 317 289 808 -35 1111 l-67 62 6 253 c3 138 7 306 10 372 2 66 7
314 11 550 6 426 6 431 -16 487 -27 72 -106 160 -172 194 -27 14 -85 30 -129
36 l-79 12 0 51 c0 73 -17 121 -56 165 -147 163 -404 53 -404 -173 l0 -40
-227 6 c-126 4 -460 12 -743 18 -283 5 -521 12 -527 14 -9 3 -13 25 -13 65 0
131 -101 231 -232 230 -29 -1 -66 -7 -83 -14z m141 -167 c17 -19 19 -35 16
-176 -2 -94 -8 -163 -15 -174 -17 -27 -60 -39 -88 -25 -43 21 -48 49 -42 208
5 126 9 151 25 168 25 27 79 27 104 -1z m1964 -39 c18 -18 20 -33 20 -180 0
-157 -1 -161 -25 -185 -29 -30 -64 -32 -96 -6 -24 19 -24 22 -21 183 2 160 3
163 28 186 31 27 68 28 94 2z m-2249 -285 c9 -96 51 -158 134 -196 143 -66
305 33 322 196 l6 52 61 -3 c33 -1 201 -5 371 -9 388 -7 671 -14 893 -21 l172
-6 0 -27 c0 -48 29 -125 61 -164 45 -54 101 -80 174 -80 132 0 235 107 235
245 0 19 4 20 57 15 71 -7 128 -45 163 -107 23 -42 25 -53 23 -169 -1 -68 -4
-126 -8 -129 -5 -5 -1208 18 -1990 38 -192 5 -451 10 -575 12 -124 1 -257 4
-296 6 l-70 3 3 112 c2 62 9 131 14 153 21 79 117 145 204 141 l40 -2 6 -60z
m284 -520 c1265 -27 2106 -46 2233 -51 l153 -6 -7 -217 c-3 -119 -9 -358 -13
-531 -4 -230 -9 -314 -18 -313 -6 1 -49 12 -95 25 -64 17 -110 22 -203 22
-239 0 -410 -75 -576 -252 -140 -148 -209 -322 -209 -526 0 -214 68 -383 222
-551 l63 -68 -345 7 c-857 17 -1647 37 -1665 43 -48 15 -96 57 -121 109 l-26
53 11 478 c30 1260 41 1731 41 1761 l0 34 153 -6 c83 -3 265 -8 402 -11z
m2248 -1255 c141 -44 295 -181 366 -324 60 -123 77 -292 41 -430 -29 -113 -73
-189 -165 -282 -129 -131 -256 -184 -440 -185 -105 0 -209 22 -284 60 -154 79
-287 247 -326 415 -19 80 -19 226 0 301 59 232 267 429 492 465 89 14 238 5
316 -20z"/>
<path d="M3523 1928 c-26 -13 -39 -45 -93 -238 -53 -189 -57 -219 -34 -248 23
-27 231 -86 270 -76 51 13 72 86 34 124 -11 11 -47 28 -80 37 -33 10 -60 23
-60 29 0 6 18 76 40 157 41 149 42 176 8 204 -21 18 -61 23 -85 11z"/>
</g>
</svg>
