<?xml version="1.0" standalone="no"?>
<!DOCTYPE svg PUBLIC "-//W3C//DTD SVG 20010904//EN"
 "http://www.w3.org/TR/2001/REC-SVG-20010904/DTD/svg10.dtd">
<svg version="1.0" xmlns="http://www.w3.org/2000/svg"
 width="512.000000pt" height="512.000000pt" viewBox="0 0 512.000000 512.000000"
 preserveAspectRatio="xMidYMid meet">
<metadata>
Created by potrace 1.16, written by Peter Selinger 2001-2019
</metadata>
<g transform="translate(0.000000,512.000000) scale(0.100000,-0.100000)"
fill="#FF5E41" stroke="none">
<path d="M1291 4357 c-50 -19 -111 -75 -132 -121 -11 -24 -19 -64 -19 -98 0
-64 8 -59 -112 -72 -127 -14 -252 -126 -287 -256 -9 -34 -11 -367 -9 -1420 l3
-1375 23 -50 c32 -69 112 -148 186 -182 l61 -28 1335 -3 1335 -3 95 22 c227
52 422 202 529 408 50 96 69 164 79 277 18 191 -20 354 -116 501 -61 92 -156
188 -235 238 l-47 30 0 771 c0 745 -1 773 -20 829 -48 140 -168 233 -315 244
l-70 6 -7 68 c-8 85 -41 144 -103 185 -108 71 -242 43 -319 -66 -24 -34 -31
-56 -35 -114 l-6 -73 -32 1 c-18 0 -356 1 -752 2 l-719 2 -4 64 c-8 123 -95
214 -215 222 -33 2 -72 -2 -92 -9z m126 -169 c22 -21 23 -27 23 -184 l0 -163
-26 -20 c-33 -26 -54 -26 -87 -1 -34 27 -40 68 -31 222 6 108 10 134 25 149
25 25 68 24 96 -3z m1972 -4 c19 -24 21 -40 21 -185 l0 -158 -26 -20 c-31 -24
-43 -26 -78 -10 -35 16 -44 55 -40 179 1 58 3 122 3 143 2 72 78 105 120 51z
m-2249 -309 c0 -129 99 -227 229 -227 73 0 118 20 170 77 42 45 61 95 61 158
l0 37 755 0 755 0 0 -53 c0 -97 68 -184 166 -213 146 -42 294 73 294 229 l0
40 56 -7 c65 -7 98 -23 136 -63 47 -49 58 -91 58 -223 l0 -120 -1471 0 -1471
0 4 128 c3 117 6 132 31 174 39 67 107 104 195 107 32 1 32 0 32 -44z m2678
-1045 c1 -283 0 -520 -2 -526 -3 -9 -22 -8 -68 3 -79 19 -266 13 -353 -11
-286 -78 -516 -328 -565 -612 -18 -103 -8 -290 20 -379 44 -137 111 -243 218
-342 l57 -53 -1040 0 c-985 0 -1042 1 -1080 19 -57 26 -101 79 -114 141 -12
55 -16 2261 -5 2273 4 3 664 5 1468 4 l1461 -2 3 -515z m-53 -690 c205 -52
377 -222 441 -435 13 -43 18 -91 18 -170 -2 -165 -36 -263 -134 -386 -157
-196 -385 -277 -632 -224 -202 42 -387 213 -455 420 -46 142 -34 336 31 462
84 167 249 303 409 338 94 20 230 18 322 -5z"/>
<path d="M3552 1940 c-23 -25 -32 -116 -32 -326 0 -98 4 -145 13 -158 18 -24
76 -35 183 -36 109 0 144 18 144 75 0 58 -27 79 -109 83 l-71 4 0 169 c0 156
-2 171 -20 189 -27 27 -83 27 -108 0z"/>
</g>
</svg>
