<?xml version="1.0" standalone="no"?>
<!DOCTYPE svg PUBLIC "-//W3C//DTD SVG 20010904//EN"
 "http://www.w3.org/TR/2001/REC-SVG-20010904/DTD/svg10.dtd">
<svg version="1.0" xmlns="http://www.w3.org/2000/svg"
 width="512.000000pt" height="512.000000pt" viewBox="0 0 512.000000 512.000000"
 preserveAspectRatio="xMidYMid meet">
<metadata>
Created by potrace 1.16, written by Peter Selinger 2001-2019
</metadata>
<g transform="translate(0.000000,512.000000) scale(0.100000,-0.100000)"
fill="#FF5E41" stroke="none">
<path d="M3267 4495 c-97 -37 -147 -106 -155 -216 l-5 -69 -91 -1 c-50 0 -129
-2 -176 -4 -47 -2 -204 -6 -350 -9 -146 -3 -403 -9 -572 -12 l-306 -7 -7 49
c-10 82 -25 123 -57 160 -111 126 -311 99 -383 -52 -9 -20 -20 -66 -23 -100
l-5 -63 -63 -6 c-114 -13 -228 -82 -280 -171 -58 -99 -60 -134 -39 -919 3 -99
7 -308 10 -465 3 -157 7 -373 10 -480 3 -107 7 -348 10 -535 6 -395 10 -452
37 -522 35 -96 136 -186 238 -214 43 -12 404 -14 600 -4 41 2 242 6 445 9 204
4 453 8 555 11 102 3 325 7 495 10 466 8 584 14 640 32 60 19 121 59 163 108
78 88 92 153 87 394 -3 102 -9 427 -15 721 -5 294 -12 625 -15 735 -3 110 -8
362 -11 560 -7 438 -13 507 -47 577 -57 115 -170 192 -304 204 -78 7 -83 12
-83 82 0 137 -170 248 -303 197z m113 -155 c30 -16 40 -67 40 -212 0 -134 -1
-140 -25 -163 -27 -28 -42 -30 -79 -14 -37 17 -46 58 -46 212 0 131 2 142 22
164 23 24 57 30 88 13z m-1959 -49 c23 -19 24 -25 27 -184 l3 -165 -27 -21
c-36 -28 -65 -27 -95 5 -23 24 -24 33 -27 179 -4 154 -4 154 22 180 30 30 65
32 97 6z m2295 -250 c54 -25 101 -83 114 -143 5 -27 10 -91 10 -143 l0 -94
-52 -5 c-29 -3 -555 -15 -1168 -27 -613 -12 -1244 -24 -1401 -28 -157 -3 -293
-5 -303 -3 -14 3 -16 20 -16 130 0 106 3 132 20 168 32 66 116 114 197 114 32
0 33 -1 33 -43 0 -65 44 -145 101 -183 156 -104 359 8 359 199 l0 37 48 0 c26
0 214 5 417 10 204 5 522 12 708 16 l337 7 0 -47 c0 -120 103 -220 225 -219
132 1 235 104 235 236 l0 37 48 0 c26 0 65 -9 88 -19z m127 -565 c3 -7 6 -103
6 -212 1 -110 3 -242 6 -294 7 -122 30 -1369 30 -1602 l0 -176 -30 -44 c-41
-58 -96 -87 -176 -92 -35 -3 -194 -8 -353 -11 l-289 -6 74 79 c115 123 176
239 205 388 53 277 -42 553 -256 746 -120 109 -297 183 -465 194 -167 12 -370
-43 -485 -129 -222 -167 -333 -368 -347 -627 -13 -236 71 -440 248 -603 l71
-67 -76 0 c-42 0 -256 -5 -476 -11 l-399 -11 -54 25 c-61 28 -100 73 -115 132
-10 38 -21 446 -42 1545 -13 650 -13 720 -7 726 7 7 189 13 832 24 308 6 605
12 660 15 55 2 316 7 580 11 264 3 482 8 484 10 2 2 86 4 187 4 145 0 183 -3
187 -14z m-1123 -1212 c216 -64 385 -243 436 -461 22 -94 14 -265 -16 -350
-63 -180 -225 -335 -413 -395 -73 -24 -252 -28 -332 -9 -104 25 -193 78 -286
170 -96 95 -143 176 -175 301 -24 92 -15 250 18 346 62 177 229 341 396 390
126 37 265 40 372 8z"/>
<path d="M1249 1591 c-37 -37 -38 -79 -3 -120 34 -41 84 -43 119 -5 42 45 30
110 -25 139 -41 21 -58 19 -91 -14z"/>
<path d="M2281 1704 c-12 -15 -21 -38 -21 -51 0 -34 41 -71 86 -78 75 -12 84
-15 84 -32 0 -9 -11 -81 -25 -160 -22 -123 -24 -147 -13 -170 26 -54 110 -55
135 -3 12 27 75 366 76 413 1 51 -36 74 -145 91 -136 22 -153 21 -177 -10z"/>
</g>
</svg>
