<?xml version="1.0" standalone="no"?>
<!DOCTYPE svg PUBLIC "-//W3C//DTD SVG 20010904//EN"
 "http://www.w3.org/TR/2001/REC-SVG-20010904/DTD/svg10.dtd">
<svg version="1.0" xmlns="http://www.w3.org/2000/svg"
 width="512.000000pt" height="512.000000pt" viewBox="0 0 512.000000 512.000000"
 preserveAspectRatio="xMidYMid meet">
<metadata>
Created by potrace 1.16, written by Peter Selinger 2001-2019
</metadata>
<g transform="translate(0.000000,512.000000) scale(0.100000,-0.100000)"
fill="#FF5E41" stroke="none">
<path d="M1286 4660 c-37 -12 -85 -46 -115 -83 -25 -30 -51 -111 -51 -158 0
-26 0 -27 -88 -31 -109 -5 -165 -30 -243 -108 -95 -95 -95 -93 -135 -685 -19
-280 -50 -744 -69 -1030 -19 -286 -45 -665 -57 -841 l-21 -321 23 -72 c17 -52
35 -86 68 -123 97 -107 149 -124 441 -143 125 -8 280 -19 346 -25 66 -5 161
-12 210 -15 79 -5 1192 -78 1585 -105 221 -15 281 -13 345 11 77 29 164 111
198 186 32 72 35 99 82 818 8 127 24 364 35 528 11 163 29 431 40 595 11 163
27 405 36 537 19 282 16 352 -21 425 -33 66 -106 139 -165 167 -40 19 -66 25
-155 37 -17 2 -21 13 -26 79 -8 91 -38 151 -98 190 -121 80 -272 42 -335 -84
-16 -32 -26 -70 -26 -95 0 -24 -5 -46 -10 -49 -6 -4 -75 -2 -153 4 -143 11
-564 39 -992 66 -126 8 -257 17 -290 20 l-61 6 -1 67 c-1 85 -21 129 -78 180
-62 55 -144 74 -219 52z m105 -161 c11 -5 24 -21 29 -33 13 -35 -7 -305 -25
-332 -19 -30 -50 -38 -84 -24 -46 19 -50 41 -37 209 10 141 13 154 35 172 26
21 53 24 82 8z m1974 -141 l28 -22 -7 -143 c-4 -79 -12 -156 -17 -172 -20 -57
-92 -66 -125 -15 -16 23 -16 40 -6 177 11 144 13 153 37 175 33 28 55 28 90 0z
m-2277 -124 c20 -6 22 -13 22 -64 0 -193 230 -296 376 -167 51 45 68 77 79
150 5 30 12 47 21 47 17 0 693 -45 899 -59 77 -6 221 -15 320 -21 99 -6 198
-13 221 -16 l41 -5 6 -64 c7 -76 24 -111 74 -160 44 -43 127 -70 185 -61 109
18 198 113 198 212 0 41 10 48 65 40 62 -10 129 -58 156 -113 20 -41 21 -55
17 -175 -3 -71 -7 -131 -9 -132 -2 -2 -159 7 -349 20 -190 13 -451 30 -580 39
-129 8 -260 17 -290 20 -30 2 -100 7 -155 10 -55 3 -127 8 -160 10 -33 3 -132
10 -220 15 -88 6 -254 17 -370 25 -115 8 -316 22 -445 30 -129 8 -263 18 -297
21 -73 7 -70 -4 -53 168 13 136 46 186 148 222 41 15 66 17 100 8z m484 -604
c1929 -131 2169 -148 2174 -152 3 -4 -28 -491 -121 -1868 -14 -206 -30 -390
-36 -408 -15 -45 -54 -89 -103 -114 -38 -19 -51 -20 -191 -15 -144 6 -448 26
-720 46 -71 6 -219 16 -328 22 -109 7 -200 15 -202 19 -2 4 18 24 46 45 207
158 321 426 290 684 -20 159 -54 255 -126 356 -75 104 -209 227 -294 270 -126
63 -365 100 -493 76 -349 -66 -607 -338 -649 -682 -28 -236 52 -478 210 -634
22 -22 40 -44 41 -48 0 -10 -162 0 -236 14 -66 13 -126 63 -150 124 -18 48
-17 89 6 420 13 176 52 757 90 1335 29 441 39 560 46 560 2 0 337 -23 746 -50z
m180 -1209 c121 -31 193 -73 283 -165 131 -132 187 -265 188 -441 1 -292 -188
-536 -471 -610 -76 -19 -228 -19 -311 0 -190 45 -368 211 -439 408 -23 63 -26
87 -26 197 0 108 4 136 27 205 32 96 79 168 164 252 73 71 194 137 290 158 89
20 209 18 295 -4z"/>
<path d="M1650 3537 c-35 -18 -90 -94 -90 -125 1 -53 67 -99 116 -81 24 8 77
82 87 119 8 31 -15 73 -48 88 -32 15 -34 15 -65 -1z"/>
<path d="M1300 2143 c-26 -11 -41 -32 -47 -66 -6 -37 5 -52 108 -162 31 -33
78 -85 105 -116 102 -117 126 -117 245 -2 77 75 89 91 89 120 0 44 -30 73 -75
73 -29 0 -46 -9 -85 -46 l-49 -46 -55 59 c-176 190 -193 203 -236 186z"/>
</g>
</svg>
