<?xml version="1.0" standalone="no"?>
<!DOCTYPE svg PUBLIC "-//W3C//DTD SVG 20010904//EN"
 "http://www.w3.org/TR/2001/REC-SVG-20010904/DTD/svg10.dtd">
<svg version="1.0" xmlns="http://www.w3.org/2000/svg"
 width="512.000000pt" height="512.000000pt" viewBox="0 0 512.000000 512.000000"
 preserveAspectRatio="xMidYMid meet">
<metadata>
Created by potrace 1.16, written by Peter Selinger 2001-2019
</metadata>
<g transform="translate(0.000000,512.000000) scale(0.100000,-0.100000)"
fill="#FF5E41" stroke="none">
<path d="M3276 4295 c-95 -34 -147 -107 -154 -219 l-5 -74 -56 -6 c-31 -4
-123 -11 -206 -16 -82 -6 -343 -24 -580 -40 -236 -17 -480 -33 -541 -36 l-111
-7 -7 57 c-15 127 -91 204 -212 214 -85 6 -159 -28 -206 -96 -29 -42 -33 -56
-36 -127 l-4 -81 -68 -11 c-38 -6 -89 -20 -114 -33 -60 -29 -130 -99 -163
-164 -45 -87 -44 -135 37 -1246 11 -150 48 -691 80 -1160 24 -360 34 -438 66
-506 30 -64 107 -137 182 -172 68 -32 121 -33 477 -8 127 9 327 23 445 31 118
8 274 20 345 25 72 6 261 19 420 30 160 11 454 31 655 45 201 14 385 30 410
36 94 21 182 93 235 191 38 70 42 154 21 443 -9 121 -18 254 -21 295 -3 41
-12 170 -20 285 -8 116 -28 406 -45 645 -64 918 -81 1136 -91 1180 -5 25 -25
68 -44 96 -69 105 -172 163 -298 167 -40 1 -75 7 -79 12 -4 6 -8 27 -8 48 0
146 -162 253 -304 202z m114 -155 c28 -15 38 -63 46 -215 6 -135 6 -141 -15
-159 -27 -25 -77 -25 -102 0 -16 16 -21 42 -29 144 -14 180 -13 197 10 220 22
22 60 26 90 10z m-1964 -138 c24 -16 33 -54 44 -192 11 -136 10 -145 -8 -169
-13 -18 -30 -27 -54 -29 -59 -5 -74 24 -83 170 -12 169 -11 185 10 208 18 20
69 27 91 12z m2295 -133 c51 -18 97 -56 120 -100 17 -34 37 -178 39 -275 0 -7
-33 -14 -87 -18 -49 -3 -441 -31 -873 -61 -432 -30 -873 -61 -980 -69 -714
-54 -982 -69 -989 -57 -14 21 -21 225 -10 265 21 76 111 145 191 146 35 0 37
-2 43 -37 12 -69 26 -101 60 -137 73 -77 179 -97 272 -51 82 41 121 104 126
204 l3 56 75 7 c41 3 148 11 239 18 463 31 602 41 785 54 110 8 246 18 303 21
l102 7 0 -38 c1 -76 65 -170 137 -200 49 -21 146 -18 192 6 49 24 108 93 121
139 5 20 10 57 10 84 l0 47 44 0 c23 0 58 -5 77 -11z m173 -606 c3 -32 10
-128 16 -213 6 -85 17 -247 25 -360 8 -113 21 -306 30 -430 8 -124 17 -252 20
-285 3 -33 14 -193 25 -355 11 -162 25 -353 30 -425 8 -109 7 -137 -6 -177
-16 -50 -74 -111 -122 -129 -15 -6 -344 -32 -732 -59 -388 -27 -736 -52 -775
-55 l-70 -6 36 38 c110 118 154 190 195 317 22 68 27 104 30 221 4 147 0 174
-48 305 -33 93 -72 155 -147 235 -90 97 -146 139 -244 185 -130 61 -238 83
-372 76 -205 -11 -348 -68 -484 -193 -94 -87 -158 -171 -204 -273 l-34 -71
-11 163 c-6 90 -29 428 -52 752 -23 323 -40 589 -38 591 2 1 176 15 388 29
1076 75 1177 82 1930 136 289 21 544 38 566 39 l41 1 7 -57z m-1920 -1293
c114 -29 189 -73 282 -165 136 -135 191 -280 182 -479 -10 -206 -111 -381
-287 -495 -96 -61 -168 -83 -301 -88 -201 -9 -336 43 -476 181 -121 120 -171
231 -181 401 -9 171 36 312 138 435 86 104 216 186 329 209 30 6 64 13 75 15
55 11 169 4 239 -14z m-821 -1028 c32 -53 121 -147 202 -216 l30 -25 -54 -1
c-104 0 -190 65 -210 160 -10 48 -15 140 -7 140 2 0 19 -26 39 -58z"/>
<path d="M2740 2403 c-23 -9 -45 -42 -132 -200 -36 -65 -37 -115 -3 -148 13
-14 34 -25 47 -25 58 0 66 9 133 144 36 72 65 144 65 159 0 52 -59 89 -110 70z"/>
<path d="M1653 1762 c-25 -4 -63 -46 -63 -71 0 -18 14 -56 95 -256 31 -77 64
-148 72 -157 30 -34 60 -29 206 32 84 35 109 63 100 113 -11 58 -67 71 -152
36 -28 -12 -53 -20 -55 -18 -2 2 -29 67 -61 144 -70 173 -81 187 -142 177z"/>
</g>
</svg>
