<?xml version="1.0" standalone="no"?>
<!DOCTYPE svg PUBLIC "-//W3C//DTD SVG 20010904//EN"
 "http://www.w3.org/TR/2001/REC-SVG-20010904/DTD/svg10.dtd">
<svg version="1.0" xmlns="http://www.w3.org/2000/svg"
 width="512.000000pt" height="512.000000pt" viewBox="0 0 512.000000 512.000000"
 preserveAspectRatio="xMidYMid meet">
<metadata>
Created by potrace 1.16, written by Peter Selinger 2001-2019
</metadata>
<g transform="translate(0.000000,512.000000) scale(0.100000,-0.100000)"
fill="#FF5E41" stroke="none">
<path d="M3244 4206 c-82 -38 -125 -106 -130 -204 -1 -35 -5 -66 -7 -68 -4 -4
-1290 -43 -1428 -44 l-66 0 -6 60 c-4 33 -15 77 -26 98 -107 207 -423 142
-432 -89 -3 -80 -8 -85 -83 -91 -84 -7 -147 -38 -217 -108 -40 -39 -62 -73
-79 -115 -22 -60 -22 -62 -16 -415 3 -196 9 -421 12 -500 3 -80 11 -352 18
-605 11 -387 11 -468 -1 -510 -57 -211 -55 -387 6 -545 13 -32 25 -97 31 -157
7 -77 15 -114 35 -153 55 -108 147 -178 265 -200 38 -7 162 -7 400 0 190 5
586 17 880 25 294 8 639 17 765 21 127 3 234 9 239 12 5 2 1 9 -8 14 -24 13
-21 79 4 106 26 27 65 28 107 2 41 -24 57 -55 49 -93 l-6 -30 117 6 c69 3 137
12 163 21 102 36 195 137 226 244 17 59 17 125 -16 1207 -5 176 -17 583 -25
905 -8 322 -18 605 -21 630 -9 71 -58 163 -114 213 -73 66 -130 90 -222 95
-43 2 -78 7 -79 11 0 3 -3 30 -5 60 -13 168 -179 267 -330 197z m157 -166 c16
-22 19 -46 20 -179 1 -142 -1 -155 -20 -174 -24 -25 -76 -27 -99 -3 -18 18
-30 115 -31 260 -1 69 2 83 21 103 30 32 83 28 109 -7z m-1972 -46 c20 -19 36
-296 20 -337 -21 -51 -81 -63 -116 -24 -18 19 -21 39 -26 171 -3 81 -2 159 4
172 16 43 83 53 118 18z m2301 -234 c45 -23 85 -68 98 -112 12 -40 23 -257 13
-263 -7 -4 -659 -23 -2036 -60 -302 -8 -627 -18 -721 -21 l-171 -7 -7 120 c-6
98 -5 127 8 157 37 88 90 129 183 142 l50 6 7 -59 c21 -190 234 -277 377 -155
52 45 78 101 79 170 0 50 1 52 28 52 15 0 333 9 707 20 863 25 775 26 775 -6
0 -87 59 -181 134 -215 55 -25 145 -25 194 0 80 41 131 119 132 203 0 27 5 48
13 52 21 9 98 -4 137 -24z m124 -682 c13 -289 58 -2016 54 -2090 -3 -66 -7
-82 -33 -119 -61 -86 -104 -94 -570 -103 -310 -6 -855 -21 -1125 -31 l-165 -6
61 63 c135 141 183 226 216 385 44 213 8 431 -99 590 -73 110 -169 199 -298
275 -152 90 -351 118 -548 77 -84 -18 -244 -101 -324 -167 l-71 -61 -6 92 c-3
51 -10 288 -16 527 -5 239 -13 478 -16 531 l-6 96 209 7 c114 3 624 18 1133
31 509 14 1040 29 1180 34 140 4 292 9 336 9 l82 2 6 -142z m-2133 -1134 c185
-58 335 -212 405 -414 15 -44 19 -83 19 -190 -1 -128 -2 -139 -33 -215 -79
-197 -249 -344 -449 -389 -232 -52 -457 23 -612 203 -167 195 -200 470 -82
696 45 88 158 208 243 258 146 87 334 106 509 51z"/>
<path d="M2608 2291 c-18 -21 -53 -76 -77 -122 -24 -46 -66 -121 -93 -167
l-50 -83 -57 53 c-31 29 -74 72 -95 96 -61 68 -135 75 -163 17 -28 -58 -13
-92 76 -173 44 -40 109 -101 146 -137 106 -102 154 -98 215 17 18 33 72 127
120 208 138 231 148 266 93 310 -41 32 -76 26 -115 -19z"/>
<path d="M1531 1743 c-25 -31 -22 -19 -60 -251 -30 -184 -30 -214 1 -239 18
-16 195 -45 243 -41 70 6 96 77 46 127 -10 10 -46 23 -81 29 -35 7 -64 13 -65
14 -2 2 8 64 21 138 30 174 30 195 -1 225 -33 34 -77 33 -104 -2z"/>
</g>
</svg>
