<?xml version="1.0" standalone="no"?>
<!DOCTYPE svg PUBLIC "-//W3C//DTD SVG 20010904//EN"
 "http://www.w3.org/TR/2001/REC-SVG-20010904/DTD/svg10.dtd">
<svg version="1.0" xmlns="http://www.w3.org/2000/svg"
 width="512.000000pt" height="512.000000pt" viewBox="0 0 512.000000 512.000000"
 preserveAspectRatio="xMidYMid meet">
<metadata>
Created by potrace 1.16, written by Peter Selinger 2001-2019
</metadata>
<g transform="translate(0.000000,512.000000) scale(0.100000,-0.100000)"
fill="#FF5E41" stroke="none">
<path d="M1254 4635 c-69 -34 -113 -96 -127 -179 l-11 -63 -78 -6 c-105 -8
-182 -43 -246 -111 -51 -54 -78 -97 -94 -150 -9 -31 -25 -222 -52 -631 -64
-939 -124 -1801 -135 -1931 -11 -138 -5 -171 50 -281 82 -165 149 -204 364
-217 61 -4 162 -11 225 -17 63 -5 216 -16 340 -24 230 -15 387 -26 1005 -71
193 -14 422 -29 510 -34 88 -5 174 -12 191 -15 17 -3 85 -5 150 -6 97 0 131 4
175 20 69 26 147 94 183 160 31 57 55 173 56 264 0 32 7 122 14 200 8 78 20
232 25 342 6 110 18 295 26 410 21 299 72 1037 92 1324 21 319 14 362 -80 467
-58 64 -131 103 -220 118 l-72 12 3 51 c5 70 -12 122 -55 172 -47 55 -102 81
-173 81 -125 0 -230 -101 -230 -220 0 -27 -5 -43 -15 -46 -8 -3 -180 6 -382
20 -203 14 -532 38 -733 52 -201 14 -367 28 -370 31 -3 2 -6 33 -7 68 -1 77
-22 122 -78 174 -71 66 -165 79 -251 36z m136 -145 c37 -20 41 -42 30 -192 -6
-79 -15 -153 -22 -165 -16 -33 -65 -47 -94 -28 -40 26 -44 44 -34 166 5 63 10
128 10 145 0 63 58 102 110 74z m1987 -156 c13 -20 14 -45 8 -156 -9 -157 -20
-199 -56 -212 -37 -13 -78 0 -91 29 -15 33 4 319 23 341 31 38 90 36 116 -2z
m-2271 -168 c8 -143 111 -234 255 -224 103 7 178 78 201 189 11 53 14 59 38
59 27 0 351 -22 1030 -70 234 -16 428 -30 433 -30 4 0 7 -23 7 -50 0 -158 146
-272 294 -230 87 24 166 120 166 203 0 20 3 38 8 40 4 3 31 1 61 -4 63 -10
114 -46 149 -105 22 -37 23 -46 18 -172 -2 -74 -6 -136 -8 -138 -4 -3 -253 13
-933 61 -121 9 -312 23 -425 30 -113 8 -299 21 -415 29 -115 8 -255 18 -310
21 -55 3 -147 10 -205 15 -58 5 -226 17 -374 26 l-268 18 7 105 c8 135 18 173
58 218 43 49 100 74 161 71 l49 -3 3 -59z m57 -516 c391 -28 503 -36 917 -65
201 -14 493 -34 650 -45 157 -11 348 -24 425 -30 509 -35 589 -41 592 -43 1
-2 -2 -66 -7 -143 -6 -76 -21 -296 -35 -489 -44 -615 -48 -675 -55 -675 -3 0
-21 20 -39 44 -37 50 -116 120 -182 164 -57 37 -175 89 -219 97 -19 3 -64 11
-100 17 -36 6 -109 8 -165 5 -154 -9 -277 -56 -411 -155 -149 -110 -219 -208
-281 -392 -25 -77 -28 -98 -28 -225 0 -115 4 -155 23 -224 34 -126 88 -218
190 -324 l46 -47 -49 0 c-26 0 -240 13 -474 30 -234 16 -556 39 -716 50 -475
33 -439 28 -490 62 -46 31 -77 77 -89 133 -4 17 3 161 14 320 11 160 34 484
50 720 17 237 39 556 50 710 10 154 22 330 25 390 4 61 8 116 10 123 6 16 21
16 348 -8z m2030 -1344 c144 -46 299 -177 369 -312 70 -132 87 -296 48 -448
-69 -270 -319 -466 -596 -466 -210 0 -382 84 -510 251 -86 112 -124 226 -124
373 0 180 58 318 189 446 93 92 171 138 278 165 73 19 277 13 346 -9z"/>
<path d="M1532 1953 c-21 -27 -81 -109 -132 -183 -133 -194 -116 -185 -186
-104 -133 153 -134 154 -171 154 -64 0 -102 -65 -72 -123 13 -23 123 -158 198
-242 83 -92 124 -106 170 -56 27 29 190 258 294 411 35 53 57 96 57 113 0 40
-41 77 -84 77 -29 0 -40 -8 -74 -47z"/>
<path d="M3335 1853 c-11 -2 -67 -19 -125 -38 -58 -19 -137 -43 -176 -54 -89
-26 -118 -54 -111 -108 7 -63 52 -194 75 -220 30 -33 84 -32 111 3 25 31 26
55 6 109 -23 64 -20 73 28 85 53 14 156 47 223 72 62 23 84 59 65 107 -11 25
-49 53 -69 50 -4 -1 -16 -3 -27 -6z"/>
</g>
</svg>
