<?xml version="1.0" standalone="no"?>
<!DOCTYPE svg PUBLIC "-//W3C//DTD SVG 20010904//EN"
 "http://www.w3.org/TR/2001/REC-SVG-20010904/DTD/svg10.dtd">
<svg version="1.0" xmlns="http://www.w3.org/2000/svg"
 width="512.000000pt" height="512.000000pt" viewBox="0 0 512.000000 512.000000"
 preserveAspectRatio="xMidYMid meet">
<metadata>
Created by potrace 1.16, written by Peter Selinger 2001-2019
</metadata>
<g transform="translate(0.000000,512.000000) scale(0.100000,-0.100000)"
fill="#FF5E41" stroke="none">
<path d="M1315 4361 c-106 -27 -166 -101 -174 -215 l-6 -71 -72 -6 c-142 -11
-262 -101 -312 -233 -21 -57 -21 -58 -21 -1426 l0 -1369 22 -58 c27 -74 107
-159 185 -199 l58 -29 1370 0 1370 0 79 23 c215 62 403 216 501 411 115 229
104 523 -26 744 -53 89 -154 195 -240 253 l-69 46 0 766 c0 810 0 815 -46 889
-63 102 -174 171 -289 182 l-70 6 -7 66 c-7 78 -24 115 -75 164 -44 43 -127
70 -185 61 -116 -19 -188 -99 -197 -220 l-6 -71 -751 -3 -751 -2 -5 70 c-7 88
-43 152 -108 192 -49 29 -125 42 -175 29z m102 -173 c22 -21 23 -27 23 -184
l0 -163 -26 -20 c-34 -27 -62 -27 -91 1 -22 21 -23 27 -23 184 0 155 1 164 22
184 28 26 66 26 95 -2z m1967 1 l26 -20 0 -164 0 -164 -26 -20 c-34 -27 -64
-27 -92 -1 -21 20 -22 29 -22 185 0 152 2 167 20 185 26 26 60 25 94 -1z
m-2243 -331 c26 -237 322 -294 436 -83 9 17 19 55 22 85 l6 55 750 0 750 0 7
-63 c14 -127 100 -206 223 -205 72 0 118 18 163 64 46 46 61 79 70 147 8 57 8
57 41 55 67 -3 99 -14 141 -50 61 -53 70 -81 70 -228 l0 -125 -1471 0 -1472 0
5 129 c4 117 7 133 31 174 39 67 118 108 197 104 23 -2 26 -7 31 -59z m2679
-1039 l0 -521 -47 8 c-27 5 -106 9 -178 9 -140 -1 -224 -19 -330 -72 -204
-103 -377 -320 -420 -528 -20 -94 -19 -268 1 -358 32 -144 143 -327 252 -416
l37 -30 -1045 0 c-990 -1 -1047 0 -1085 18 -57 26 -101 79 -114 141 -8 35 -11
391 -11 1160 l0 1110 1470 0 1470 0 0 -521z m-60 -673 c212 -51 390 -223 456
-442 27 -87 25 -257 -4 -349 -77 -249 -301 -427 -557 -442 -222 -14 -397 65
-539 241 -89 110 -129 229 -130 381 0 112 15 178 65 280 82 167 237 292 409
331 74 16 232 16 300 0z"/>
<path d="M3550 1940 c-19 -19 -20 -33 -20 -243 0 -285 -11 -267 170 -267 120
0 131 2 150 22 27 29 26 79 -3 106 -17 16 -37 22 -92 24 l-70 3 -5 172 c-5
157 -7 173 -25 187 -29 22 -81 20 -105 -4z"/>
</g>
</svg>
