<?xml version="1.0" standalone="no"?>
<!DOCTYPE svg PUBLIC "-//W3C//DTD SVG 20010904//EN"
 "http://www.w3.org/TR/2001/REC-SVG-20010904/DTD/svg10.dtd">
<svg version="1.0" xmlns="http://www.w3.org/2000/svg"
 width="512.000000pt" height="512.000000pt" viewBox="0 0 512.000000 512.000000"
 preserveAspectRatio="xMidYMid meet">
<metadata>
Created by potrace 1.16, written by Peter Selinger 2001-2019
</metadata>
<g transform="translate(0.000000,512.000000) scale(0.100000,-0.100000)"
fill="#FF5E41" stroke="none">
<path d="M3266 4215 c-89 -32 -145 -119 -146 -226 l0 -67 -122 -6 c-68 -4
-249 -13 -403 -21 -154 -8 -415 -21 -580 -30 -165 -8 -322 -16 -350 -17 l-50
-3 -5 60 c-10 121 -92 206 -207 213 -78 5 -125 -11 -179 -60 -50 -46 -77 -114
-73 -185 l3 -47 -85 -17 c-126 -25 -212 -88 -266 -193 -40 -79 -42 -125 -22
-501 10 -192 26 -480 34 -640 8 -159 22 -415 31 -569 l16 -278 -29 -97 c-25
-84 -28 -112 -28 -226 1 -143 17 -224 65 -331 17 -37 30 -88 34 -135 15 -145
106 -271 234 -319 54 -21 67 -22 262 -16 113 4 275 11 360 16 182 11 756 42
1570 85 531 28 544 30 616 65 71 35 139 104 176 178 21 42 23 61 23 182 0 74
-3 198 -8 275 -4 77 -12 226 -17 330 -5 105 -12 226 -15 270 -3 44 -12 208
-20 365 -8 157 -21 411 -30 565 -8 154 -22 399 -30 545 -9 173 -19 283 -30
317 -45 149 -190 253 -354 253 l-61 0 0 48 c0 160 -162 272 -314 217z m133
-164 c20 -20 29 -93 34 -263 2 -68 -1 -80 -20 -99 -26 -27 -77 -29 -101 -5
-18 18 -30 116 -31 264 -1 69 2 85 19 102 25 25 74 26 99 1z m-1964 -112 c16
-16 20 -40 28 -170 9 -143 8 -152 -10 -177 -37 -50 -115 -34 -127 25 -13 69
-17 292 -6 313 22 42 76 46 115 9z m2301 -165 c56 -27 101 -85 112 -146 17
-85 22 -229 8 -233 -6 -2 -236 -15 -511 -30 -468 -24 -676 -35 -1880 -100
-258 -14 -484 -25 -501 -25 l-31 0 -7 114 c-9 143 1 186 58 242 41 41 93 64
147 64 29 0 39 -15 39 -61 0 -42 32 -99 79 -142 149 -134 381 -16 381 195 0
37 1 38 38 38 20 0 333 16 696 35 759 40 766 41 766 20 0 -50 25 -117 58 -155
98 -115 279 -106 364 19 25 35 32 57 36 112 l5 69 54 0 c30 0 70 -7 89 -16z
m144 -606 c1 -35 3 -88 5 -118 3 -30 16 -273 30 -540 14 -267 27 -523 30 -570
18 -298 45 -820 46 -900 2 -103 -13 -151 -63 -197 -58 -54 -17 -50 -1033 -103
-313 -16 -622 -33 -685 -37 l-115 -6 58 63 c32 34 65 74 74 89 9 14 25 35 34
46 31 35 79 166 95 260 45 255 -25 503 -189 674 -103 106 -254 200 -374 233
-93 25 -283 29 -378 9 -120 -26 -256 -97 -349 -181 l-55 -51 -5 43 c-3 24 -10
140 -16 258 -6 118 -19 374 -30 567 -11 194 -20 357 -20 361 0 5 60 12 133 15
72 4 386 20 697 37 311 17 648 35 750 40 264 13 749 40 1000 55 118 7 248 13
288 14 l72 1 0 -62z m-2125 -1264 c214 -55 393 -246 444 -474 15 -66 13 -206
-4 -279 -50 -210 -226 -393 -440 -457 -82 -25 -258 -25 -338 -1 -223 68 -391
243 -443 463 -24 101 -15 266 19 356 101 264 351 430 622 412 44 -3 107 -12
140 -20z"/>
<path d="M2708 2333 c-23 -6 -99 -129 -183 -295 -38 -76 -74 -138 -81 -138 -6
0 -55 41 -107 90 -81 77 -100 90 -128 90 -40 0 -52 -7 -68 -37 -15 -30 -14
-74 4 -99 8 -12 11 -25 7 -29 -4 -5 -2 -6 4 -2 5 3 67 -46 137 -109 70 -63
139 -119 153 -124 47 -18 87 11 128 93 20 40 54 104 77 142 73 123 169 322
169 349 0 52 -54 85 -112 69z"/>
<path d="M1603 1700 c-27 -25 -26 -19 -67 -248 -38 -206 -37 -233 6 -252 13
-6 70 -19 127 -29 116 -21 140 -17 167 24 34 52 -11 107 -99 124 -26 5 -51 11
-54 15 -3 3 6 72 21 153 14 82 26 156 26 166 0 28 -45 67 -78 67 -15 0 -38 -9
-49 -20z"/>
</g>
</svg>
