<svg id="visual" viewBox="0 0 960 540" width="960" height="540" xmlns="http://www.w3.org/2000/svg" xmlns:xlink="http://www.w3.org/1999/xlink" version="1.1"><rect x="0" y="0" width="960" height="540" fill="#FFFBEF"></rect><g transform="translate(12.331927670810956 529.0318920462486)"><path d="M251.8 -421.5C331.6 -390.1 405.3 -333.3 457.3 -258.8C509.3 -184.3 539.6 -92.2 534.7 -2.8C529.8 86.5 489.6 173 439.1 250.1C388.6 327.2 327.8 394.8 252.9 439.6C178 484.3 89 506.2 3.4 500.2C-82.2 494.3 -164.3 460.6 -248.5 421.2C-332.6 381.8 -418.8 336.7 -478.9 265.5C-539.1 194.3 -573.3 97.2 -554.9 10.6C-536.5 -75.9 -465.6 -151.9 -413 -236.2C-360.4 -320.5 -326.2 -413.1 -260.4 -452.6C-194.7 -492.2 -97.3 -478.6 -5.7 -468.8C86 -459 172 -452.9 251.8 -421.5" fill="#004A93"></path></g></svg>